ISO-10303-21;
HEADER;
/* Generated by software containing ST-Developer
 * from STEP Tools, Inc. (www.steptools.com) 
 */
/* OPTION: using custom renumber hook */

FILE_DESCRIPTION(
/* description */ ('STEP AP242 Edition 2',
'CAx-IF Rec.Pracs.---Representation and Presentation of Product Manufa
cturing Information (PMI)---4.0---2014-10-13',
'CAx-IF Rec.Pracs.---3D Tessellated Geometry---0.4---2014-09-14','2;1',
'CAx-IF Rec.Pracs.---User Defined Attributes---1.5---2016-08-15'),
/* implementation_level */ '2;1');

FILE_NAME(
/* name */ 'Part Studio 1',
/* time_stamp */ '2026-09-11T20:22:26Z',
/* author */ (''),
/* organization */ (''),
/* preprocessor_version */ 'ST-DEVELOPER v20',
/* originating_system */ 'ONSHAPE BY PTC INC, 1.220',
/* authorisation */ '  ');

FILE_SCHEMA (('AP242_MANAGED_MODEL_BASED_3D_ENGINEERING_MIM_LF { 1 0 10303 442 3 1 4 }'));
ENDSEC;

DATA;
#10=SHAPE_REPRESENTATION_RELATIONSHIP('','',#371,#11);
#11=ADVANCED_BREP_SHAPE_REPRESENTATION('',(#369),#601);
#12=CYLINDRICAL_SURFACE('',#386,0.00145);
#13=CYLINDRICAL_SURFACE('',#388,0.00145);
#14=CYLINDRICAL_SURFACE('',#390,0.00145);
#15=CYLINDRICAL_SURFACE('',#392,0.00145);
#16=CIRCLE('',#375,0.00145);
#17=CIRCLE('',#376,0.00145);
#18=CIRCLE('',#377,0.00145);
#19=CIRCLE('',#378,0.00145);
#20=CIRCLE('',#387,0.00145);
#21=CIRCLE('',#389,0.00145);
#22=CIRCLE('',#391,0.00145);
#23=CIRCLE('',#393,0.00145);
#24=ORIENTED_EDGE('',*,*,#112,.T.);
#25=ORIENTED_EDGE('',*,*,#113,.T.);
#26=ORIENTED_EDGE('',*,*,#114,.T.);
#27=ORIENTED_EDGE('',*,*,#115,.F.);
#28=ORIENTED_EDGE('',*,*,#116,.T.);
#29=ORIENTED_EDGE('',*,*,#117,.T.);
#30=ORIENTED_EDGE('',*,*,#118,.F.);
#31=ORIENTED_EDGE('',*,*,#119,.F.);
#32=ORIENTED_EDGE('',*,*,#120,.F.);
#33=ORIENTED_EDGE('',*,*,#121,.F.);
#34=ORIENTED_EDGE('',*,*,#122,.F.);
#35=ORIENTED_EDGE('',*,*,#123,.F.);
#36=ORIENTED_EDGE('',*,*,#124,.F.);
#37=ORIENTED_EDGE('',*,*,#125,.T.);
#38=ORIENTED_EDGE('',*,*,#112,.F.);
#39=ORIENTED_EDGE('',*,*,#126,.T.);
#40=ORIENTED_EDGE('',*,*,#127,.T.);
#41=ORIENTED_EDGE('',*,*,#128,.F.);
#42=ORIENTED_EDGE('',*,*,#116,.F.);
#43=ORIENTED_EDGE('',*,*,#129,.F.);
#44=ORIENTED_EDGE('',*,*,#130,.F.);
#45=ORIENTED_EDGE('',*,*,#131,.F.);
#46=ORIENTED_EDGE('',*,*,#132,.T.);
#47=ORIENTED_EDGE('',*,*,#133,.T.);
#48=ORIENTED_EDGE('',*,*,#134,.T.);
#49=ORIENTED_EDGE('',*,*,#131,.T.);
#50=ORIENTED_EDGE('',*,*,#135,.F.);
#51=ORIENTED_EDGE('',*,*,#136,.F.);
#52=ORIENTED_EDGE('',*,*,#137,.T.);
#53=ORIENTED_EDGE('',*,*,#132,.F.);
#54=ORIENTED_EDGE('',*,*,#134,.F.);
#55=ORIENTED_EDGE('',*,*,#138,.T.);
#56=ORIENTED_EDGE('',*,*,#139,.T.);
#57=ORIENTED_EDGE('',*,*,#133,.F.);
#58=ORIENTED_EDGE('',*,*,#137,.F.);
#59=ORIENTED_EDGE('',*,*,#140,.T.);
#60=ORIENTED_EDGE('',*,*,#141,.T.);
#61=ORIENTED_EDGE('',*,*,#142,.T.);
#62=ORIENTED_EDGE('',*,*,#124,.T.);
#63=ORIENTED_EDGE('',*,*,#139,.F.);
#64=ORIENTED_EDGE('',*,*,#143,.F.);
#65=ORIENTED_EDGE('',*,*,#135,.T.);
#66=ORIENTED_EDGE('',*,*,#130,.T.);
#67=ORIENTED_EDGE('',*,*,#144,.F.);
#68=ORIENTED_EDGE('',*,*,#136,.T.);
#69=ORIENTED_EDGE('',*,*,#143,.T.);
#70=ORIENTED_EDGE('',*,*,#140,.F.);
#71=ORIENTED_EDGE('',*,*,#138,.F.);
#72=ORIENTED_EDGE('',*,*,#145,.T.);
#73=ORIENTED_EDGE('',*,*,#146,.F.);
#74=ORIENTED_EDGE('',*,*,#126,.F.);
#75=ORIENTED_EDGE('',*,*,#119,.T.);
#76=ORIENTED_EDGE('',*,*,#147,.T.);
#77=ORIENTED_EDGE('',*,*,#148,.F.);
#78=ORIENTED_EDGE('',*,*,#127,.F.);
#79=ORIENTED_EDGE('',*,*,#146,.T.);
#80=ORIENTED_EDGE('',*,*,#123,.T.);
#81=ORIENTED_EDGE('',*,*,#149,.F.);
#82=ORIENTED_EDGE('',*,*,#122,.T.);
#83=ORIENTED_EDGE('',*,*,#150,.F.);
#84=ORIENTED_EDGE('',*,*,#121,.T.);
#85=ORIENTED_EDGE('',*,*,#151,.F.);
#86=ORIENTED_EDGE('',*,*,#120,.T.);
#87=ORIENTED_EDGE('',*,*,#152,.F.);
#88=ORIENTED_EDGE('',*,*,#153,.F.);
#89=ORIENTED_EDGE('',*,*,#117,.F.);
#90=ORIENTED_EDGE('',*,*,#128,.T.);
#91=ORIENTED_EDGE('',*,*,#148,.T.);
#92=ORIENTED_EDGE('',*,*,#150,.T.);
#93=ORIENTED_EDGE('',*,*,#151,.T.);
#94=ORIENTED_EDGE('',*,*,#152,.T.);
#95=ORIENTED_EDGE('',*,*,#145,.F.);
#96=ORIENTED_EDGE('',*,*,#118,.T.);
#97=ORIENTED_EDGE('',*,*,#153,.T.);
#98=ORIENTED_EDGE('',*,*,#147,.F.);
#99=ORIENTED_EDGE('',*,*,#149,.T.);
#100=ORIENTED_EDGE('',*,*,#125,.F.);
#101=ORIENTED_EDGE('',*,*,#142,.F.);
#102=ORIENTED_EDGE('',*,*,#154,.F.);
#103=ORIENTED_EDGE('',*,*,#113,.F.);
#104=ORIENTED_EDGE('',*,*,#154,.T.);
#105=ORIENTED_EDGE('',*,*,#141,.F.);
#106=ORIENTED_EDGE('',*,*,#155,.F.);
#107=ORIENTED_EDGE('',*,*,#114,.F.);
#108=ORIENTED_EDGE('',*,*,#115,.T.);
#109=ORIENTED_EDGE('',*,*,#155,.T.);
#110=ORIENTED_EDGE('',*,*,#144,.T.);
#111=ORIENTED_EDGE('',*,*,#129,.T.);
#112=EDGE_CURVE('',#156,#157,#188,.T.);
#113=EDGE_CURVE('',#157,#158,#189,.T.);
#114=EDGE_CURVE('',#158,#159,#190,.T.);
#115=EDGE_CURVE('',#160,#159,#191,.T.);
#116=EDGE_CURVE('',#160,#161,#192,.T.);
#117=EDGE_CURVE('',#161,#162,#193,.T.);
#118=EDGE_CURVE('',#163,#162,#194,.T.);
#119=EDGE_CURVE('',#156,#163,#195,.T.);
#120=EDGE_CURVE('',#164,#164,#16,.T.);
#121=EDGE_CURVE('',#165,#165,#17,.T.);
#122=EDGE_CURVE('',#166,#166,#18,.T.);
#123=EDGE_CURVE('',#167,#167,#19,.T.);
#124=EDGE_CURVE('',#168,#169,#196,.T.);
#125=EDGE_CURVE('',#168,#157,#197,.T.);
#126=EDGE_CURVE('',#156,#170,#198,.T.);
#127=EDGE_CURVE('',#170,#171,#199,.T.);
#128=EDGE_CURVE('',#161,#171,#200,.T.);
#129=EDGE_CURVE('',#172,#160,#201,.T.);
#130=EDGE_CURVE('',#173,#172,#202,.T.);
#131=EDGE_CURVE('',#174,#173,#203,.T.);
#132=EDGE_CURVE('',#174,#175,#204,.T.);
#133=EDGE_CURVE('',#175,#169,#205,.T.);
#134=EDGE_CURVE('',#176,#174,#206,.T.);
#135=EDGE_CURVE('',#177,#173,#207,.T.);
#136=EDGE_CURVE('',#176,#177,#208,.T.);
#137=EDGE_CURVE('',#178,#175,#209,.T.);
#138=EDGE_CURVE('',#176,#178,#210,.T.);
#139=EDGE_CURVE('',#179,#169,#211,.T.);
#140=EDGE_CURVE('',#178,#179,#212,.T.);
#141=EDGE_CURVE('',#180,#181,#213,.T.);
#142=EDGE_CURVE('',#181,#168,#214,.T.);
#143=EDGE_CURVE('',#177,#179,#215,.T.);
#144=EDGE_CURVE('',#180,#172,#216,.T.);
#145=EDGE_CURVE('',#163,#182,#217,.T.);
#146=EDGE_CURVE('',#170,#182,#218,.T.);
#147=EDGE_CURVE('',#182,#183,#219,.T.);
#148=EDGE_CURVE('',#171,#183,#220,.T.);
#149=EDGE_CURVE('',#184,#184,#20,.T.);
#150=EDGE_CURVE('',#185,#185,#21,.T.);
#151=EDGE_CURVE('',#186,#186,#22,.T.);
#152=EDGE_CURVE('',#187,#187,#23,.T.);
#153=EDGE_CURVE('',#162,#183,#221,.T.);
#154=EDGE_CURVE('',#158,#181,#222,.T.);
#155=EDGE_CURVE('',#159,#180,#223,.T.);
#156=VERTEX_POINT('',#504);
#157=VERTEX_POINT('',#505);
#158=VERTEX_POINT('',#507);
#159=VERTEX_POINT('',#509);
#160=VERTEX_POINT('',#511);
#161=VERTEX_POINT('',#513);
#162=VERTEX_POINT('',#515);
#163=VERTEX_POINT('',#517);
#164=VERTEX_POINT('',#521);
#165=VERTEX_POINT('',#523);
#166=VERTEX_POINT('',#525);
#167=VERTEX_POINT('',#527);
#168=VERTEX_POINT('',#529);
#169=VERTEX_POINT('',#530);
#170=VERTEX_POINT('',#533);
#171=VERTEX_POINT('',#535);
#172=VERTEX_POINT('',#538);
#173=VERTEX_POINT('',#540);
#174=VERTEX_POINT('',#542);
#175=VERTEX_POINT('',#544);
#176=VERTEX_POINT('',#548);
#177=VERTEX_POINT('',#550);
#178=VERTEX_POINT('',#554);
#179=VERTEX_POINT('',#558);
#180=VERTEX_POINT('',#562);
#181=VERTEX_POINT('',#563);
#182=VERTEX_POINT('',#570);
#183=VERTEX_POINT('',#574);
#184=VERTEX_POINT('',#578);
#185=VERTEX_POINT('',#581);
#186=VERTEX_POINT('',#584);
#187=VERTEX_POINT('',#587);
#188=LINE('',#503,#224);
#189=LINE('',#506,#225);
#190=LINE('',#508,#226);
#191=LINE('',#510,#227);
#192=LINE('',#512,#228);
#193=LINE('',#514,#229);
#194=LINE('',#516,#230);
#195=LINE('',#518,#231);
#196=LINE('',#528,#232);
#197=LINE('',#531,#233);
#198=LINE('',#532,#234);
#199=LINE('',#534,#235);
#200=LINE('',#536,#236);
#201=LINE('',#537,#237);
#202=LINE('',#539,#238);
#203=LINE('',#541,#239);
#204=LINE('',#543,#240);
#205=LINE('',#545,#241);
#206=LINE('',#547,#242);
#207=LINE('',#549,#243);
#208=LINE('',#551,#244);
#209=LINE('',#553,#245);
#210=LINE('',#555,#246);
#211=LINE('',#557,#247);
#212=LINE('',#559,#248);
#213=LINE('',#561,#249);
#214=LINE('',#564,#250);
#215=LINE('',#565,#251);
#216=LINE('',#566,#252);
#217=LINE('',#569,#253);
#218=LINE('',#571,#254);
#219=LINE('',#573,#255);
#220=LINE('',#575,#256);
#221=LINE('',#589,#257);
#222=LINE('',#596,#258);
#223=LINE('',#598,#259);
#224=VECTOR('',#407,1.);
#225=VECTOR('',#408,1.);
#226=VECTOR('',#409,1.);
#227=VECTOR('',#410,1.);
#228=VECTOR('',#411,1.);
#229=VECTOR('',#412,1.);
#230=VECTOR('',#413,1.);
#231=VECTOR('',#414,1.);
#232=VECTOR('',#425,1.);
#233=VECTOR('',#426,1.);
#234=VECTOR('',#427,1.);
#235=VECTOR('',#428,1.);
#236=VECTOR('',#429,1.);
#237=VECTOR('',#430,1.);
#238=VECTOR('',#431,1.);
#239=VECTOR('',#432,1.);
#240=VECTOR('',#433,1.);
#241=VECTOR('',#434,1.);
#242=VECTOR('',#437,1.);
#243=VECTOR('',#438,1.);
#244=VECTOR('',#439,1.);
#245=VECTOR('',#442,1.);
#246=VECTOR('',#443,1.);
#247=VECTOR('',#446,1.);
#248=VECTOR('',#447,1.);
#249=VECTOR('',#450,1.);
#250=VECTOR('',#451,1.);
#251=VECTOR('',#452,1.);
#252=VECTOR('',#453,1.);
#253=VECTOR('',#458,1.);
#254=VECTOR('',#459,1.);
#255=VECTOR('',#462,1.);
#256=VECTOR('',#463,1.);
#257=VECTOR('',#482,1.);
#258=VECTOR('',#495,1.);
#259=VECTOR('',#498,1.);
#260=EDGE_LOOP('',(#24,#25,#26,#27,#28,#29,#30,#31));
#261=EDGE_LOOP('',(#32));
#262=EDGE_LOOP('',(#33));
#263=EDGE_LOOP('',(#34));
#264=EDGE_LOOP('',(#35));
#265=EDGE_LOOP('',(#36,#37,#38,#39,#40,#41,#42,#43,#44,#45,#46,#47));
#266=EDGE_LOOP('',(#48,#49,#50,#51));
#267=EDGE_LOOP('',(#52,#53,#54,#55));
#268=EDGE_LOOP('',(#56,#57,#58,#59));
#269=EDGE_LOOP('',(#60,#61,#62,#63,#64,#65,#66,#67));
#270=EDGE_LOOP('',(#68,#69,#70,#71));
#271=EDGE_LOOP('',(#72,#73,#74,#75));
#272=EDGE_LOOP('',(#76,#77,#78,#79));
#273=EDGE_LOOP('',(#80));
#274=EDGE_LOOP('',(#81));
#275=EDGE_LOOP('',(#82));
#276=EDGE_LOOP('',(#83));
#277=EDGE_LOOP('',(#84));
#278=EDGE_LOOP('',(#85));
#279=EDGE_LOOP('',(#86));
#280=EDGE_LOOP('',(#87));
#281=EDGE_LOOP('',(#88,#89,#90,#91));
#282=EDGE_LOOP('',(#92));
#283=EDGE_LOOP('',(#93));
#284=EDGE_LOOP('',(#94));
#285=EDGE_LOOP('',(#95,#96,#97,#98));
#286=EDGE_LOOP('',(#99));
#287=EDGE_LOOP('',(#100,#101,#102,#103));
#288=EDGE_LOOP('',(#104,#105,#106,#107));
#289=EDGE_LOOP('',(#108,#109,#110,#111));
#290=FACE_BOUND('',#260,.T.);
#291=FACE_BOUND('',#261,.T.);
#292=FACE_BOUND('',#262,.T.);
#293=FACE_BOUND('',#263,.T.);
#294=FACE_BOUND('',#264,.T.);
#295=FACE_BOUND('',#265,.T.);
#296=FACE_BOUND('',#266,.T.);
#297=FACE_BOUND('',#267,.T.);
#298=FACE_BOUND('',#268,.T.);
#299=FACE_BOUND('',#269,.T.);
#300=FACE_BOUND('',#270,.T.);
#301=FACE_BOUND('',#271,.T.);
#302=FACE_BOUND('',#272,.T.);
#303=FACE_BOUND('',#273,.T.);
#304=FACE_BOUND('',#274,.T.);
#305=FACE_BOUND('',#275,.T.);
#306=FACE_BOUND('',#276,.T.);
#307=FACE_BOUND('',#277,.T.);
#308=FACE_BOUND('',#278,.T.);
#309=FACE_BOUND('',#279,.T.);
#310=FACE_BOUND('',#280,.T.);
#311=FACE_BOUND('',#281,.T.);
#312=FACE_BOUND('',#282,.T.);
#313=FACE_BOUND('',#283,.T.);
#314=FACE_BOUND('',#284,.T.);
#315=FACE_BOUND('',#285,.T.);
#316=FACE_BOUND('',#286,.T.);
#317=FACE_BOUND('',#287,.T.);
#318=FACE_BOUND('',#288,.T.);
#319=FACE_BOUND('',#289,.T.);
#320=PLANE('',#373);
#321=PLANE('',#374);
#322=PLANE('',#379);
#323=PLANE('',#380);
#324=PLANE('',#381);
#325=PLANE('',#382);
#326=PLANE('',#383);
#327=PLANE('',#384);
#328=PLANE('',#385);
#329=PLANE('',#394);
#330=PLANE('',#395);
#331=PLANE('',#396);
#332=PLANE('',#397);
#333=PLANE('',#398);
#334=PLANE('',#399);
#335=PLANE('',#400);
#336=PLANE('',#401);
#337=PLANE('',#402);
#338=ADVANCED_FACE('',(#290),#320,.T.);
#339=ADVANCED_FACE('',(#291,#292,#293,#294,#295),#321,.T.);
#340=ADVANCED_FACE('',(#296),#322,.F.);
#341=ADVANCED_FACE('',(#297),#323,.T.);
#342=ADVANCED_FACE('',(#298),#324,.T.);
#343=ADVANCED_FACE('',(#299),#325,.F.);
#344=ADVANCED_FACE('',(#300),#326,.F.);
#345=ADVANCED_FACE('',(#301),#327,.F.);
#346=ADVANCED_FACE('',(#302),#328,.F.);
#347=ADVANCED_FACE('',(#303,#304),#12,.F.);
#348=ADVANCED_FACE('',(#305,#306),#13,.F.);
#349=ADVANCED_FACE('',(#307,#308),#14,.F.);
#350=ADVANCED_FACE('',(#309,#310),#15,.F.);
#351=ADVANCED_FACE('',(#311),#329,.T.);
#352=ADVANCED_FACE('',(#312),#330,.T.);
#353=ADVANCED_FACE('',(#313),#331,.T.);
#354=ADVANCED_FACE('',(#314),#332,.T.);
#355=ADVANCED_FACE('',(#315),#333,.T.);
#356=ADVANCED_FACE('',(#316),#334,.T.);
#357=ADVANCED_FACE('',(#317),#335,.T.);
#358=ADVANCED_FACE('',(#318),#336,.T.);
#359=ADVANCED_FACE('',(#319),#337,.F.);
#360=CLOSED_SHELL('',(#338,#339,#340,#341,#342,#343,#344,#345,#346,#347,
#348,#349,#350,#351,#352,#353,#354,#355,#356,#357,#358,#359));
#361=STYLED_ITEM('',(#362),#369);
#362=PRESENTATION_STYLE_ASSIGNMENT((#363));
#363=SURFACE_STYLE_USAGE(.BOTH.,#364);
#364=SURFACE_SIDE_STYLE('',(#365));
#365=SURFACE_STYLE_FILL_AREA(#366);
#366=FILL_AREA_STYLE('',(#367));
#367=FILL_AREA_STYLE_COLOUR('',#368);
#368=COLOUR_RGB('',0.615686274509804,0.811764705882353,0.929411764705882);
#369=MANIFOLD_SOLID_BREP('Part 1',#360);
#370=SHAPE_DEFINITION_REPRESENTATION(#606,#371);
#371=SHAPE_REPRESENTATION('Part 1',(#372),#601);
#372=AXIS2_PLACEMENT_3D('',#501,#403,#404);
#373=AXIS2_PLACEMENT_3D('',#502,#405,#406);
#374=AXIS2_PLACEMENT_3D('',#519,#415,#416);
#375=AXIS2_PLACEMENT_3D('',#520,#417,#418);
#376=AXIS2_PLACEMENT_3D('',#522,#419,#420);
#377=AXIS2_PLACEMENT_3D('',#524,#421,#422);
#378=AXIS2_PLACEMENT_3D('',#526,#423,#424);
#379=AXIS2_PLACEMENT_3D('',#546,#435,#436);
#380=AXIS2_PLACEMENT_3D('',#552,#440,#441);
#381=AXIS2_PLACEMENT_3D('',#556,#444,#445);
#382=AXIS2_PLACEMENT_3D('',#560,#448,#449);
#383=AXIS2_PLACEMENT_3D('',#567,#454,#455);
#384=AXIS2_PLACEMENT_3D('',#568,#456,#457);
#385=AXIS2_PLACEMENT_3D('',#572,#460,#461);
#386=AXIS2_PLACEMENT_3D('',#576,#464,#465);
#387=AXIS2_PLACEMENT_3D('',#577,#466,#467);
#388=AXIS2_PLACEMENT_3D('',#579,#468,#469);
#389=AXIS2_PLACEMENT_3D('',#580,#470,#471);
#390=AXIS2_PLACEMENT_3D('',#582,#472,#473);
#391=AXIS2_PLACEMENT_3D('',#583,#474,#475);
#392=AXIS2_PLACEMENT_3D('',#585,#476,#477);
#393=AXIS2_PLACEMENT_3D('',#586,#478,#479);
#394=AXIS2_PLACEMENT_3D('',#588,#480,#481);
#395=AXIS2_PLACEMENT_3D('',#590,#483,#484);
#396=AXIS2_PLACEMENT_3D('',#591,#485,#486);
#397=AXIS2_PLACEMENT_3D('',#592,#487,#488);
#398=AXIS2_PLACEMENT_3D('',#593,#489,#490);
#399=AXIS2_PLACEMENT_3D('',#594,#491,#492);
#400=AXIS2_PLACEMENT_3D('',#595,#493,#494);
#401=AXIS2_PLACEMENT_3D('',#597,#496,#497);
#402=AXIS2_PLACEMENT_3D('',#599,#499,#500);
#403=DIRECTION('',(0.,0.,1.));
#404=DIRECTION('',(1.,0.,0.));
#405=DIRECTION('',(-1.,0.,0.));
#406=DIRECTION('',(0.,0.,1.));
#407=DIRECTION('',(0.,1.,0.));
#408=DIRECTION('',(0.,0.,-1.));
#409=DIRECTION('',(0.,1.,1.15648231731787E-16));
#410=DIRECTION('',(0.,0.,-1.));
#411=DIRECTION('',(0.,1.,0.));
#412=DIRECTION('',(0.,0.,-1.));
#413=DIRECTION('',(0.,1.,0.));
#414=DIRECTION('',(0.,0.,-1.));
#415=DIRECTION('',(0.,0.,1.));
#416=DIRECTION('',(1.,0.,0.));
#417=DIRECTION('',(0.,0.,1.));
#418=DIRECTION('',(1.,0.,0.));
#419=DIRECTION('',(0.,0.,1.));
#420=DIRECTION('',(1.,0.,0.));
#421=DIRECTION('',(0.,0.,1.));
#422=DIRECTION('',(1.,0.,0.));
#423=DIRECTION('',(0.,0.,1.));
#424=DIRECTION('',(1.,0.,0.));
#425=DIRECTION('',(7.04456233899211E-16,-1.,0.));
#426=DIRECTION('',(-1.,-7.04456233899211E-16,0.));
#427=DIRECTION('',(-1.,-3.60150202624943E-16,0.));
#428=DIRECTION('',(-4.47093679375466E-16,1.,0.));
#429=DIRECTION('',(-1.,-1.20050067541647E-16,0.));
#430=DIRECTION('',(-1.,-7.04456233899211E-16,0.));
#431=DIRECTION('',(7.04456233899211E-16,-1.,0.));
#432=DIRECTION('',(1.,2.67566602978428E-16,0.));
#433=DIRECTION('',(3.08199602330905E-16,-1.,0.));
#434=DIRECTION('',(1.,2.45269386063559E-16,0.));
#435=DIRECTION('',(2.67566602978428E-16,-1.,0.));
#436=DIRECTION('',(1.,2.67566602978428E-16,0.));
#437=DIRECTION('',(0.,0.,1.));
#438=DIRECTION('',(0.,0.,1.));
#439=DIRECTION('',(1.,2.67566602978428E-16,0.));
#440=DIRECTION('',(-1.,-3.08199602330905E-16,0.));
#441=DIRECTION('',(3.08199602330905E-16,-1.,0.));
#442=DIRECTION('',(0.,0.,1.));
#443=DIRECTION('',(3.08199602330905E-16,-1.,0.));
#444=DIRECTION('',(2.45269386063559E-16,-1.,0.));
#445=DIRECTION('',(1.,2.45269386063559E-16,0.));
#446=DIRECTION('',(0.,0.,1.));
#447=DIRECTION('',(1.,2.45269386063559E-16,0.));
#448=DIRECTION('',(-1.,-7.04456233899211E-16,0.));
#449=DIRECTION('',(7.04456233899211E-16,-1.,0.));
#450=DIRECTION('',(7.04456233899211E-16,-1.,-1.15648231731787E-16));
#451=DIRECTION('',(0.,0.,1.));
#452=DIRECTION('',(7.04456233899211E-16,-1.,0.));
#453=DIRECTION('',(0.,0.,1.));
#454=DIRECTION('',(0.,0.,1.));
#455=DIRECTION('',(1.,0.,0.));
#456=DIRECTION('',(3.60150202624943E-16,-1.,0.));
#457=DIRECTION('',(1.,3.60150202624943E-16,0.));
#458=DIRECTION('',(-1.,-3.60150202624943E-16,0.));
#459=DIRECTION('',(0.,0.,-1.));
#460=DIRECTION('',(-1.,-4.47093679375466E-16,0.));
#461=DIRECTION('',(4.47093679375466E-16,-1.,0.));
#462=DIRECTION('',(-4.47093679375466E-16,1.,0.));
#463=DIRECTION('',(0.,0.,-1.));
#464=DIRECTION('',(0.,0.,-1.));
#465=DIRECTION('',(-1.,0.,0.));
#466=DIRECTION('',(0.,0.,1.));
#467=DIRECTION('',(1.,0.,0.));
#468=DIRECTION('',(0.,0.,-1.));
#469=DIRECTION('',(-1.,0.,0.));
#470=DIRECTION('',(0.,0.,1.));
#471=DIRECTION('',(1.,0.,0.));
#472=DIRECTION('',(0.,0.,-1.));
#473=DIRECTION('',(-1.,0.,0.));
#474=DIRECTION('',(0.,0.,1.));
#475=DIRECTION('',(1.,0.,0.));
#476=DIRECTION('',(0.,0.,-1.));
#477=DIRECTION('',(-1.,0.,0.));
#478=DIRECTION('',(0.,0.,1.));
#479=DIRECTION('',(1.,0.,0.));
#480=DIRECTION('',(1.20050067541647E-16,-1.,0.));
#481=DIRECTION('',(1.,1.20050067541647E-16,0.));
#482=DIRECTION('',(-1.,-1.20050067541647E-16,0.));
#483=DIRECTION('',(0.,0.,1.));
#484=DIRECTION('',(1.,0.,0.));
#485=DIRECTION('',(0.,0.,1.));
#486=DIRECTION('',(1.,0.,0.));
#487=DIRECTION('',(0.,0.,1.));
#488=DIRECTION('',(1.,0.,0.));
#489=DIRECTION('',(0.,0.,1.));
#490=DIRECTION('',(1.,0.,0.));
#491=DIRECTION('',(0.,0.,1.));
#492=DIRECTION('',(1.,0.,0.));
#493=DIRECTION('',(-7.04456233899211E-16,1.,0.));
#494=DIRECTION('',(-1.,-7.04456233899211E-16,0.));
#495=DIRECTION('',(1.,7.04456233899211E-16,0.));
#496=DIRECTION('',(8.1469117782878E-32,-1.15648231731787E-16,1.));
#497=DIRECTION('',(0.,-1.,-1.15648231731787E-16));
#498=DIRECTION('',(1.,7.04456233899211E-16,0.));
#499=DIRECTION('',(-7.04456233899211E-16,1.,0.));
#500=DIRECTION('',(-1.,-7.04456233899211E-16,0.));
#501=CARTESIAN_POINT('',(0.,0.,0.));
#502=CARTESIAN_POINT('',(0.0711582681679823,0.0234919562309981,0.01));
#503=CARTESIAN_POINT('',(0.0711582681679823,0.0234919562309981,0.01));
#504=CARTESIAN_POINT('',(0.0711582681679823,0.013791956230998,0.01));
#505=CARTESIAN_POINT('',(0.0711582681679823,0.015991956230998,0.01));
#506=CARTESIAN_POINT('',(0.0711582681679823,0.015991956230998,0.01));
#507=CARTESIAN_POINT('',(0.0711582681679823,0.015991956230998,0.0025));
#508=CARTESIAN_POINT('',(0.0711582681679823,0.0234919562309981,0.0025));
#509=CARTESIAN_POINT('',(0.0711582681679823,0.030991956230998,0.0025));
#510=CARTESIAN_POINT('',(0.0711582681679823,0.030991956230998,0.01));
#511=CARTESIAN_POINT('',(0.0711582681679823,0.030991956230998,0.01));
#512=CARTESIAN_POINT('',(0.0711582681679823,0.0234919562309981,0.01));
#513=CARTESIAN_POINT('',(0.0711582681679823,0.033191956230998,0.01));
#514=CARTESIAN_POINT('',(0.0711582681679823,0.033191956230998,0.01));
#515=CARTESIAN_POINT('',(0.0711582681679823,0.033191956230998,0.));
#516=CARTESIAN_POINT('',(0.0711582681679823,0.0234919562309981,0.));
#517=CARTESIAN_POINT('',(0.0711582681679823,0.013791956230998,0.));
#518=CARTESIAN_POINT('',(0.0711582681679823,0.013791956230998,0.01));
#519=CARTESIAN_POINT('',(0.0422582681679823,0.0234919562309981,0.01));
#520=CARTESIAN_POINT('',(0.00835826816798232,0.00879195623099802,0.01));
#521=CARTESIAN_POINT('',(0.00980826816798232,0.00879195623099802,0.01));
#522=CARTESIAN_POINT('',(0.0761582681679823,0.00879195623099804,0.01));
#523=CARTESIAN_POINT('',(0.0776082681679823,0.00879195623099804,0.01));
#524=CARTESIAN_POINT('',(0.0761582681679823,0.0381919562309981,0.01));
#525=CARTESIAN_POINT('',(0.0776082681679823,0.0381919562309981,0.01));
#526=CARTESIAN_POINT('',(0.00835826816798231,0.0381919562309981,0.01));
#527=CARTESIAN_POINT('',(0.00980826816798231,0.0381919562309981,0.01));
#528=CARTESIAN_POINT('',(0.0811582681679823,0.0234919562309981,0.01));
#529=CARTESIAN_POINT('',(0.0811582681679823,0.015991956230998,0.01));
#530=CARTESIAN_POINT('',(0.0811582681679823,0.00379195623099804,0.01));
#531=CARTESIAN_POINT('',(0.0422582681679823,0.015991956230998,0.01));
#532=CARTESIAN_POINT('',(0.0422582681679824,0.013791956230998,0.01));
#533=CARTESIAN_POINT('',(0.0133582681679823,0.013791956230998,0.01));
#534=CARTESIAN_POINT('',(0.0133582681679823,0.023491956230998,0.01));
#535=CARTESIAN_POINT('',(0.0133582681679823,0.033191956230998,0.01));
#536=CARTESIAN_POINT('',(0.0422582681679823,0.033191956230998,0.01));
#537=CARTESIAN_POINT('',(0.0422582681679823,0.030991956230998,0.01));
#538=CARTESIAN_POINT('',(0.0811582681679823,0.030991956230998,0.01));
#539=CARTESIAN_POINT('',(0.0811582681679823,0.0234919562309981,0.01));
#540=CARTESIAN_POINT('',(0.0811582681679823,0.0431919562309981,0.01));
#541=CARTESIAN_POINT('',(0.0422582681679823,0.043191956230998,0.01));
#542=CARTESIAN_POINT('',(0.00335826816798229,0.043191956230998,0.01));
#543=CARTESIAN_POINT('',(0.00335826816798231,0.023491956230998,0.01));
#544=CARTESIAN_POINT('',(0.00335826816798232,0.00379195623099801,0.01));
#545=CARTESIAN_POINT('',(0.0422582681679824,0.00379195623099802,0.01));
#546=CARTESIAN_POINT('',(0.0422582681679823,0.043191956230998,-0.003));
#547=CARTESIAN_POINT('',(0.00335826816798229,0.043191956230998,-0.003));
#548=CARTESIAN_POINT('',(0.00335826816798229,0.043191956230998,-0.003));
#549=CARTESIAN_POINT('',(0.0811582681679823,0.0431919562309981,-0.003));
#550=CARTESIAN_POINT('',(0.0811582681679823,0.0431919562309981,-0.003));
#551=CARTESIAN_POINT('',(0.0422582681679823,0.043191956230998,-0.003));
#552=CARTESIAN_POINT('',(0.00335826816798231,0.023491956230998,-0.003));
#553=CARTESIAN_POINT('',(0.00335826816798232,0.00379195623099801,-0.003));
#554=CARTESIAN_POINT('',(0.00335826816798232,0.00379195623099801,-0.003));
#555=CARTESIAN_POINT('',(0.00335826816798231,0.023491956230998,-0.003));
#556=CARTESIAN_POINT('',(0.0422582681679824,0.00379195623099802,-0.003));
#557=CARTESIAN_POINT('',(0.0811582681679823,0.00379195623099804,-0.003));
#558=CARTESIAN_POINT('',(0.0811582681679823,0.00379195623099804,-0.003));
#559=CARTESIAN_POINT('',(0.0422582681679824,0.00379195623099802,-0.003));
#560=CARTESIAN_POINT('',(0.0811582681679823,0.0234919562309981,-0.003));
#561=CARTESIAN_POINT('',(0.0811582681679823,0.023491956230998,0.0025));
#562=CARTESIAN_POINT('',(0.0811582681679823,0.030991956230998,0.0025));
#563=CARTESIAN_POINT('',(0.0811582681679823,0.015991956230998,0.0025));
#564=CARTESIAN_POINT('',(0.0811582681679823,0.015991956230998,0.01));
#565=CARTESIAN_POINT('',(0.0811582681679823,0.0234919562309981,-0.003));
#566=CARTESIAN_POINT('',(0.0811582681679823,0.030991956230998,0.01));
#567=CARTESIAN_POINT('',(0.0422582681679823,0.0234919562309981,-0.003));
#568=CARTESIAN_POINT('',(0.0422582681679824,0.013791956230998,0.01));
#569=CARTESIAN_POINT('',(0.0422582681679824,0.013791956230998,0.));
#570=CARTESIAN_POINT('',(0.0133582681679823,0.013791956230998,0.));
#571=CARTESIAN_POINT('',(0.0133582681679823,0.013791956230998,0.01));
#572=CARTESIAN_POINT('',(0.0133582681679823,0.023491956230998,0.01));
#573=CARTESIAN_POINT('',(0.0133582681679823,0.023491956230998,0.));
#574=CARTESIAN_POINT('',(0.0133582681679823,0.033191956230998,0.));
#575=CARTESIAN_POINT('',(0.0133582681679823,0.033191956230998,0.01));
#576=CARTESIAN_POINT('',(0.00835826816798231,0.0381919562309981,0.01));
#577=CARTESIAN_POINT('',(0.00835826816798231,0.0381919562309981,0.));
#578=CARTESIAN_POINT('',(0.00980826816798231,0.0381919562309981,0.));
#579=CARTESIAN_POINT('',(0.0761582681679823,0.0381919562309981,0.01));
#580=CARTESIAN_POINT('',(0.0761582681679823,0.0381919562309981,0.));
#581=CARTESIAN_POINT('',(0.0776082681679823,0.0381919562309981,0.));
#582=CARTESIAN_POINT('',(0.0761582681679823,0.00879195623099804,0.01));
#583=CARTESIAN_POINT('',(0.0761582681679823,0.00879195623099804,0.));
#584=CARTESIAN_POINT('',(0.0776082681679823,0.00879195623099804,0.));
#585=CARTESIAN_POINT('',(0.00835826816798232,0.00879195623099802,0.01));
#586=CARTESIAN_POINT('',(0.00835826816798232,0.00879195623099802,0.));
#587=CARTESIAN_POINT('',(0.00980826816798232,0.00879195623099802,0.));
#588=CARTESIAN_POINT('',(0.0422582681679823,0.033191956230998,0.01));
#589=CARTESIAN_POINT('',(0.0422582681679823,0.033191956230998,0.));
#590=CARTESIAN_POINT('',(0.0422582681679823,0.0234919562309981,0.));
#591=CARTESIAN_POINT('',(0.0422582681679823,0.0234919562309981,0.));
#592=CARTESIAN_POINT('',(0.0422582681679823,0.0234919562309981,0.));
#593=CARTESIAN_POINT('',(0.0422582681679823,0.0234919562309981,0.));
#594=CARTESIAN_POINT('',(0.0422582681679823,0.0234919562309981,0.));
#595=CARTESIAN_POINT('',(0.0561582681679823,0.015991956230998,0.01));
#596=CARTESIAN_POINT('',(0.0561582681679823,0.015991956230998,0.0025));
#597=CARTESIAN_POINT('',(0.0561582681679823,0.023491956230998,0.0025));
#598=CARTESIAN_POINT('',(0.0561582681679823,0.030991956230998,0.0025));
#599=CARTESIAN_POINT('',(0.0561582681679823,0.030991956230998,0.01));
#600=MECHANICAL_DESIGN_GEOMETRIC_PRESENTATION_REPRESENTATION('',(#361),
#601);
#601=(
GEOMETRIC_REPRESENTATION_CONTEXT(3)
GLOBAL_UNCERTAINTY_ASSIGNED_CONTEXT((#602))
GLOBAL_UNIT_ASSIGNED_CONTEXT((#605,#604,#603))
REPRESENTATION_CONTEXT('Part 1','TOP_LEVEL_ASSEMBLY_PART')
);
#602=UNCERTAINTY_MEASURE_WITH_UNIT(LENGTH_MEASURE(1.E-8),#605,
'DISTANCE_ACCURACY_VALUE','Maximum Tolerance applied to model');
#603=(
NAMED_UNIT(*)
SI_UNIT($,.STERADIAN.)
SOLID_ANGLE_UNIT()
);
#604=(
NAMED_UNIT(*)
PLANE_ANGLE_UNIT()
SI_UNIT($,.RADIAN.)
);
#605=(
LENGTH_UNIT()
NAMED_UNIT(*)
SI_UNIT($,.METRE.)
);
#606=PRODUCT_DEFINITION_SHAPE('','',#607);
#607=PRODUCT_DEFINITION('','',#609,#608);
#608=PRODUCT_DEFINITION_CONTEXT('',#615,'design');
#609=PRODUCT_DEFINITION_FORMATION_WITH_SPECIFIED_SOURCE('','',#611,
 .NOT_KNOWN.);
#610=PRODUCT_RELATED_PRODUCT_CATEGORY('','',(#611));
#611=PRODUCT('Part 1','Part 1','Part 1',(#613));
#612=PRODUCT_CATEGORY('','');
#613=PRODUCT_CONTEXT('',#615,'mechanical');
#614=APPLICATION_PROTOCOL_DEFINITION('international standard',
'ap242_managed_model_based_3d_engineering',2020,#615);
#615=APPLICATION_CONTEXT('managed model based 3d engineering');
ENDSEC;
END-ISO-10303-21;
