ISO-10303-21;
HEADER;
/* Generated by software containing ST-Developer
 * from STEP Tools, Inc. (www.steptools.com) 
 */
/* OPTION: using custom renumber hook */

FILE_DESCRIPTION(
/* description */ ('STEP AP242 Edition 2',
'CAx-IF Rec.Pracs.---Representation and Presentation of Product Manufa
cturing Information (PMI)---4.0---2014-10-13',
'CAx-IF Rec.Pracs.---3D Tessellated Geometry---0.4---2014-09-14','2;1',
'CAx-IF Rec.Pracs.---User Defined Attributes---1.5---2016-08-15'),
/* implementation_level */ '2;1');

FILE_NAME(
/* name */ 'Part Studio 2',
/* time_stamp */ '2026-09-11T20:21:58Z',
/* author */ (''),
/* organization */ (''),
/* preprocessor_version */ 'ST-DEVELOPER v20',
/* originating_system */ 'ONSHAPE BY PTC INC, 1.220',
/* authorisation */ '  ');

FILE_SCHEMA (('AP242_MANAGED_MODEL_BASED_3D_ENGINEERING_MIM_LF { 1 0 10303 442 3 1 4 }'));
ENDSEC;

DATA;
#10=SHAPE_REPRESENTATION_RELATIONSHIP('','',#687,#11);
#11=ADVANCED_BREP_SHAPE_REPRESENTATION('',(#685),#1141);
#12=CIRCLE('',#693,0.0005);
#13=CIRCLE('',#694,0.0005);
#14=CIRCLE('',#697,0.0005);
#15=CIRCLE('',#698,0.0005);
#16=CIRCLE('',#701,0.0005);
#17=CIRCLE('',#702,0.0005);
#18=CIRCLE('',#705,0.0005);
#19=CIRCLE('',#706,0.0005);
#20=CIRCLE('',#708,0.0005);
#21=CIRCLE('',#709,0.0005);
#22=CIRCLE('',#712,0.0005);
#23=CIRCLE('',#713,0.0005);
#24=CIRCLE('',#716,0.0005);
#25=CIRCLE('',#717,0.0005);
#26=CIRCLE('',#720,0.0005);
#27=CIRCLE('',#721,0.0005);
#28=CIRCLE('',#723,0.0005);
#29=CIRCLE('',#724,0.0005);
#30=CIRCLE('',#727,0.000500000000000007);
#31=CIRCLE('',#728,0.000500000000000007);
#32=CIRCLE('',#731,0.0005);
#33=CIRCLE('',#732,0.0005);
#34=CIRCLE('',#735,0.0005);
#35=CIRCLE('',#736,0.0005);
#36=CIRCLE('',#738,0.00145);
#37=CIRCLE('',#739,0.00145);
#38=CIRCLE('',#741,0.00145);
#39=CIRCLE('',#742,0.00145);
#40=CIRCLE('',#744,0.00145);
#41=CIRCLE('',#745,0.00145);
#42=CIRCLE('',#747,0.00145);
#43=CIRCLE('',#748,0.00145);
#44=CYLINDRICAL_SURFACE('',#692,0.0005);
#45=CYLINDRICAL_SURFACE('',#696,0.0005);
#46=CYLINDRICAL_SURFACE('',#700,0.0005);
#47=CYLINDRICAL_SURFACE('',#704,0.0005);
#48=CYLINDRICAL_SURFACE('',#707,0.0005);
#49=CYLINDRICAL_SURFACE('',#711,0.0005);
#50=CYLINDRICAL_SURFACE('',#715,0.0005);
#51=CYLINDRICAL_SURFACE('',#719,0.0005);
#52=CYLINDRICAL_SURFACE('',#722,0.0005);
#53=CYLINDRICAL_SURFACE('',#726,0.000500000000000007);
#54=CYLINDRICAL_SURFACE('',#730,0.0005);
#55=CYLINDRICAL_SURFACE('',#734,0.0005);
#56=CYLINDRICAL_SURFACE('',#737,0.00145);
#57=CYLINDRICAL_SURFACE('',#740,0.00145);
#58=CYLINDRICAL_SURFACE('',#743,0.00145);
#59=CYLINDRICAL_SURFACE('',#746,0.00145);
#60=ORIENTED_EDGE('',*,*,#244,.F.);
#61=ORIENTED_EDGE('',*,*,#245,.F.);
#62=ORIENTED_EDGE('',*,*,#246,.T.);
#63=ORIENTED_EDGE('',*,*,#247,.T.);
#64=ORIENTED_EDGE('',*,*,#248,.T.);
#65=ORIENTED_EDGE('',*,*,#249,.F.);
#66=ORIENTED_EDGE('',*,*,#250,.F.);
#67=ORIENTED_EDGE('',*,*,#245,.T.);
#68=ORIENTED_EDGE('',*,*,#251,.T.);
#69=ORIENTED_EDGE('',*,*,#252,.F.);
#70=ORIENTED_EDGE('',*,*,#253,.F.);
#71=ORIENTED_EDGE('',*,*,#249,.T.);
#72=ORIENTED_EDGE('',*,*,#254,.F.);
#73=ORIENTED_EDGE('',*,*,#255,.F.);
#74=ORIENTED_EDGE('',*,*,#256,.T.);
#75=ORIENTED_EDGE('',*,*,#257,.T.);
#76=ORIENTED_EDGE('',*,*,#258,.T.);
#77=ORIENTED_EDGE('',*,*,#259,.F.);
#78=ORIENTED_EDGE('',*,*,#260,.F.);
#79=ORIENTED_EDGE('',*,*,#255,.T.);
#80=ORIENTED_EDGE('',*,*,#261,.F.);
#81=ORIENTED_EDGE('',*,*,#262,.F.);
#82=ORIENTED_EDGE('',*,*,#263,.T.);
#83=ORIENTED_EDGE('',*,*,#259,.T.);
#84=ORIENTED_EDGE('',*,*,#264,.T.);
#85=ORIENTED_EDGE('',*,*,#265,.F.);
#86=ORIENTED_EDGE('',*,*,#266,.F.);
#87=ORIENTED_EDGE('',*,*,#262,.T.);
#88=ORIENTED_EDGE('',*,*,#267,.F.);
#89=ORIENTED_EDGE('',*,*,#268,.F.);
#90=ORIENTED_EDGE('',*,*,#269,.T.);
#91=ORIENTED_EDGE('',*,*,#265,.T.);
#92=ORIENTED_EDGE('',*,*,#270,.F.);
#93=ORIENTED_EDGE('',*,*,#271,.F.);
#94=ORIENTED_EDGE('',*,*,#272,.T.);
#95=ORIENTED_EDGE('',*,*,#268,.T.);
#96=ORIENTED_EDGE('',*,*,#273,.F.);
#97=ORIENTED_EDGE('',*,*,#274,.F.);
#98=ORIENTED_EDGE('',*,*,#275,.T.);
#99=ORIENTED_EDGE('',*,*,#271,.T.);
#100=ORIENTED_EDGE('',*,*,#276,.F.);
#101=ORIENTED_EDGE('',*,*,#277,.F.);
#102=ORIENTED_EDGE('',*,*,#278,.T.);
#103=ORIENTED_EDGE('',*,*,#279,.T.);
#104=ORIENTED_EDGE('',*,*,#280,.T.);
#105=ORIENTED_EDGE('',*,*,#281,.F.);
#106=ORIENTED_EDGE('',*,*,#282,.F.);
#107=ORIENTED_EDGE('',*,*,#277,.T.);
#108=ORIENTED_EDGE('',*,*,#283,.F.);
#109=ORIENTED_EDGE('',*,*,#284,.F.);
#110=ORIENTED_EDGE('',*,*,#285,.T.);
#111=ORIENTED_EDGE('',*,*,#281,.T.);
#112=ORIENTED_EDGE('',*,*,#286,.T.);
#113=ORIENTED_EDGE('',*,*,#287,.F.);
#114=ORIENTED_EDGE('',*,*,#288,.F.);
#115=ORIENTED_EDGE('',*,*,#284,.T.);
#116=ORIENTED_EDGE('',*,*,#289,.F.);
#117=ORIENTED_EDGE('',*,*,#290,.F.);
#118=ORIENTED_EDGE('',*,*,#291,.T.);
#119=ORIENTED_EDGE('',*,*,#287,.T.);
#120=ORIENTED_EDGE('',*,*,#292,.F.);
#121=ORIENTED_EDGE('',*,*,#293,.F.);
#122=ORIENTED_EDGE('',*,*,#294,.T.);
#123=ORIENTED_EDGE('',*,*,#290,.T.);
#124=ORIENTED_EDGE('',*,*,#295,.F.);
#125=ORIENTED_EDGE('',*,*,#296,.F.);
#126=ORIENTED_EDGE('',*,*,#297,.T.);
#127=ORIENTED_EDGE('',*,*,#293,.T.);
#128=ORIENTED_EDGE('',*,*,#298,.F.);
#129=ORIENTED_EDGE('',*,*,#299,.F.);
#130=ORIENTED_EDGE('',*,*,#300,.T.);
#131=ORIENTED_EDGE('',*,*,#301,.T.);
#132=ORIENTED_EDGE('',*,*,#302,.T.);
#133=ORIENTED_EDGE('',*,*,#303,.F.);
#134=ORIENTED_EDGE('',*,*,#304,.F.);
#135=ORIENTED_EDGE('',*,*,#299,.T.);
#136=ORIENTED_EDGE('',*,*,#305,.F.);
#137=ORIENTED_EDGE('',*,*,#306,.F.);
#138=ORIENTED_EDGE('',*,*,#307,.T.);
#139=ORIENTED_EDGE('',*,*,#303,.T.);
#140=ORIENTED_EDGE('',*,*,#308,.T.);
#141=ORIENTED_EDGE('',*,*,#309,.F.);
#142=ORIENTED_EDGE('',*,*,#310,.F.);
#143=ORIENTED_EDGE('',*,*,#306,.T.);
#144=ORIENTED_EDGE('',*,*,#311,.F.);
#145=ORIENTED_EDGE('',*,*,#312,.F.);
#146=ORIENTED_EDGE('',*,*,#313,.T.);
#147=ORIENTED_EDGE('',*,*,#309,.T.);
#148=ORIENTED_EDGE('',*,*,#314,.F.);
#149=ORIENTED_EDGE('',*,*,#315,.F.);
#150=ORIENTED_EDGE('',*,*,#316,.T.);
#151=ORIENTED_EDGE('',*,*,#312,.T.);
#152=ORIENTED_EDGE('',*,*,#317,.F.);
#153=ORIENTED_EDGE('',*,*,#318,.F.);
#154=ORIENTED_EDGE('',*,*,#319,.T.);
#155=ORIENTED_EDGE('',*,*,#315,.T.);
#156=ORIENTED_EDGE('',*,*,#320,.T.);
#157=ORIENTED_EDGE('',*,*,#321,.F.);
#158=ORIENTED_EDGE('',*,*,#322,.T.);
#159=ORIENTED_EDGE('',*,*,#323,.F.);
#160=ORIENTED_EDGE('',*,*,#324,.T.);
#161=ORIENTED_EDGE('',*,*,#325,.F.);
#162=ORIENTED_EDGE('',*,*,#326,.T.);
#163=ORIENTED_EDGE('',*,*,#327,.F.);
#164=ORIENTED_EDGE('',*,*,#328,.F.);
#165=ORIENTED_EDGE('',*,*,#257,.F.);
#166=ORIENTED_EDGE('',*,*,#329,.T.);
#167=ORIENTED_EDGE('',*,*,#274,.T.);
#168=ORIENTED_EDGE('',*,*,#330,.F.);
#169=ORIENTED_EDGE('',*,*,#279,.F.);
#170=ORIENTED_EDGE('',*,*,#331,.T.);
#171=ORIENTED_EDGE('',*,*,#296,.T.);
#172=ORIENTED_EDGE('',*,*,#332,.F.);
#173=ORIENTED_EDGE('',*,*,#301,.F.);
#174=ORIENTED_EDGE('',*,*,#333,.T.);
#175=ORIENTED_EDGE('',*,*,#318,.T.);
#176=ORIENTED_EDGE('',*,*,#334,.F.);
#177=ORIENTED_EDGE('',*,*,#247,.F.);
#178=ORIENTED_EDGE('',*,*,#335,.T.);
#179=ORIENTED_EDGE('',*,*,#252,.T.);
#180=ORIENTED_EDGE('',*,*,#300,.F.);
#181=ORIENTED_EDGE('',*,*,#304,.T.);
#182=ORIENTED_EDGE('',*,*,#307,.F.);
#183=ORIENTED_EDGE('',*,*,#310,.T.);
#184=ORIENTED_EDGE('',*,*,#313,.F.);
#185=ORIENTED_EDGE('',*,*,#316,.F.);
#186=ORIENTED_EDGE('',*,*,#319,.F.);
#187=ORIENTED_EDGE('',*,*,#333,.F.);
#188=ORIENTED_EDGE('',*,*,#278,.F.);
#189=ORIENTED_EDGE('',*,*,#282,.T.);
#190=ORIENTED_EDGE('',*,*,#285,.F.);
#191=ORIENTED_EDGE('',*,*,#288,.T.);
#192=ORIENTED_EDGE('',*,*,#291,.F.);
#193=ORIENTED_EDGE('',*,*,#294,.F.);
#194=ORIENTED_EDGE('',*,*,#297,.F.);
#195=ORIENTED_EDGE('',*,*,#331,.F.);
#196=ORIENTED_EDGE('',*,*,#256,.F.);
#197=ORIENTED_EDGE('',*,*,#260,.T.);
#198=ORIENTED_EDGE('',*,*,#263,.F.);
#199=ORIENTED_EDGE('',*,*,#266,.T.);
#200=ORIENTED_EDGE('',*,*,#269,.F.);
#201=ORIENTED_EDGE('',*,*,#272,.F.);
#202=ORIENTED_EDGE('',*,*,#275,.F.);
#203=ORIENTED_EDGE('',*,*,#329,.F.);
#204=ORIENTED_EDGE('',*,*,#326,.F.);
#205=ORIENTED_EDGE('',*,*,#324,.F.);
#206=ORIENTED_EDGE('',*,*,#322,.F.);
#207=ORIENTED_EDGE('',*,*,#320,.F.);
#208=ORIENTED_EDGE('',*,*,#246,.F.);
#209=ORIENTED_EDGE('',*,*,#250,.T.);
#210=ORIENTED_EDGE('',*,*,#253,.T.);
#211=ORIENTED_EDGE('',*,*,#335,.F.);
#212=ORIENTED_EDGE('',*,*,#298,.T.);
#213=ORIENTED_EDGE('',*,*,#332,.T.);
#214=ORIENTED_EDGE('',*,*,#317,.T.);
#215=ORIENTED_EDGE('',*,*,#314,.T.);
#216=ORIENTED_EDGE('',*,*,#311,.T.);
#217=ORIENTED_EDGE('',*,*,#308,.F.);
#218=ORIENTED_EDGE('',*,*,#305,.T.);
#219=ORIENTED_EDGE('',*,*,#302,.F.);
#220=ORIENTED_EDGE('',*,*,#276,.T.);
#221=ORIENTED_EDGE('',*,*,#330,.T.);
#222=ORIENTED_EDGE('',*,*,#295,.T.);
#223=ORIENTED_EDGE('',*,*,#292,.T.);
#224=ORIENTED_EDGE('',*,*,#289,.T.);
#225=ORIENTED_EDGE('',*,*,#286,.F.);
#226=ORIENTED_EDGE('',*,*,#283,.T.);
#227=ORIENTED_EDGE('',*,*,#280,.F.);
#228=ORIENTED_EDGE('',*,*,#254,.T.);
#229=ORIENTED_EDGE('',*,*,#328,.T.);
#230=ORIENTED_EDGE('',*,*,#273,.T.);
#231=ORIENTED_EDGE('',*,*,#270,.T.);
#232=ORIENTED_EDGE('',*,*,#267,.T.);
#233=ORIENTED_EDGE('',*,*,#264,.F.);
#234=ORIENTED_EDGE('',*,*,#261,.T.);
#235=ORIENTED_EDGE('',*,*,#258,.F.);
#236=ORIENTED_EDGE('',*,*,#327,.T.);
#237=ORIENTED_EDGE('',*,*,#325,.T.);
#238=ORIENTED_EDGE('',*,*,#323,.T.);
#239=ORIENTED_EDGE('',*,*,#321,.T.);
#240=ORIENTED_EDGE('',*,*,#244,.T.);
#241=ORIENTED_EDGE('',*,*,#334,.T.);
#242=ORIENTED_EDGE('',*,*,#251,.F.);
#243=ORIENTED_EDGE('',*,*,#248,.F.);
#244=EDGE_CURVE('',#336,#337,#400,.T.);
#245=EDGE_CURVE('',#338,#336,#401,.T.);
#246=EDGE_CURVE('',#338,#339,#402,.T.);
#247=EDGE_CURVE('',#339,#337,#403,.T.);
#248=EDGE_CURVE('',#336,#340,#404,.T.);
#249=EDGE_CURVE('',#341,#340,#405,.T.);
#250=EDGE_CURVE('',#338,#341,#406,.T.);
#251=EDGE_CURVE('',#340,#342,#407,.T.);
#252=EDGE_CURVE('',#343,#342,#408,.T.);
#253=EDGE_CURVE('',#341,#343,#409,.T.);
#254=EDGE_CURVE('',#344,#345,#12,.T.);
#255=EDGE_CURVE('',#346,#344,#410,.T.);
#256=EDGE_CURVE('',#346,#347,#13,.T.);
#257=EDGE_CURVE('',#347,#345,#411,.T.);
#258=EDGE_CURVE('',#344,#348,#412,.T.);
#259=EDGE_CURVE('',#349,#348,#413,.T.);
#260=EDGE_CURVE('',#346,#349,#414,.T.);
#261=EDGE_CURVE('',#350,#348,#14,.T.);
#262=EDGE_CURVE('',#351,#350,#415,.T.);
#263=EDGE_CURVE('',#351,#349,#15,.T.);
#264=EDGE_CURVE('',#350,#352,#416,.T.);
#265=EDGE_CURVE('',#353,#352,#417,.T.);
#266=EDGE_CURVE('',#351,#353,#418,.T.);
#267=EDGE_CURVE('',#354,#352,#16,.T.);
#268=EDGE_CURVE('',#355,#354,#419,.T.);
#269=EDGE_CURVE('',#355,#353,#17,.T.);
#270=EDGE_CURVE('',#356,#354,#420,.T.);
#271=EDGE_CURVE('',#357,#356,#421,.T.);
#272=EDGE_CURVE('',#357,#355,#422,.T.);
#273=EDGE_CURVE('',#358,#356,#18,.T.);
#274=EDGE_CURVE('',#359,#358,#423,.T.);
#275=EDGE_CURVE('',#359,#357,#19,.T.);
#276=EDGE_CURVE('',#360,#361,#20,.T.);
#277=EDGE_CURVE('',#362,#360,#424,.T.);
#278=EDGE_CURVE('',#362,#363,#21,.T.);
#279=EDGE_CURVE('',#363,#361,#425,.T.);
#280=EDGE_CURVE('',#360,#364,#426,.T.);
#281=EDGE_CURVE('',#365,#364,#427,.T.);
#282=EDGE_CURVE('',#362,#365,#428,.T.);
#283=EDGE_CURVE('',#366,#364,#22,.T.);
#284=EDGE_CURVE('',#367,#366,#429,.T.);
#285=EDGE_CURVE('',#367,#365,#23,.T.);
#286=EDGE_CURVE('',#366,#368,#430,.T.);
#287=EDGE_CURVE('',#369,#368,#431,.T.);
#288=EDGE_CURVE('',#367,#369,#432,.T.);
#289=EDGE_CURVE('',#370,#368,#24,.T.);
#290=EDGE_CURVE('',#371,#370,#433,.T.);
#291=EDGE_CURVE('',#371,#369,#25,.T.);
#292=EDGE_CURVE('',#372,#370,#434,.T.);
#293=EDGE_CURVE('',#373,#372,#435,.T.);
#294=EDGE_CURVE('',#373,#371,#436,.T.);
#295=EDGE_CURVE('',#374,#372,#26,.T.);
#296=EDGE_CURVE('',#375,#374,#437,.T.);
#297=EDGE_CURVE('',#375,#373,#27,.T.);
#298=EDGE_CURVE('',#376,#377,#28,.T.);
#299=EDGE_CURVE('',#378,#376,#438,.T.);
#300=EDGE_CURVE('',#378,#379,#29,.T.);
#301=EDGE_CURVE('',#379,#377,#439,.T.);
#302=EDGE_CURVE('',#376,#380,#440,.T.);
#303=EDGE_CURVE('',#381,#380,#441,.T.);
#304=EDGE_CURVE('',#378,#381,#442,.T.);
#305=EDGE_CURVE('',#382,#380,#30,.T.);
#306=EDGE_CURVE('',#383,#382,#443,.T.);
#307=EDGE_CURVE('',#383,#381,#31,.T.);
#308=EDGE_CURVE('',#382,#384,#444,.T.);
#309=EDGE_CURVE('',#385,#384,#445,.T.);
#310=EDGE_CURVE('',#383,#385,#446,.T.);
#311=EDGE_CURVE('',#386,#384,#32,.T.);
#312=EDGE_CURVE('',#387,#386,#447,.T.);
#313=EDGE_CURVE('',#387,#385,#33,.T.);
#314=EDGE_CURVE('',#388,#386,#448,.T.);
#315=EDGE_CURVE('',#389,#388,#449,.T.);
#316=EDGE_CURVE('',#389,#387,#450,.T.);
#317=EDGE_CURVE('',#390,#388,#34,.T.);
#318=EDGE_CURVE('',#391,#390,#451,.T.);
#319=EDGE_CURVE('',#391,#389,#35,.T.);
#320=EDGE_CURVE('',#392,#392,#36,.T.);
#321=EDGE_CURVE('',#393,#393,#37,.T.);
#322=EDGE_CURVE('',#394,#394,#38,.T.);
#323=EDGE_CURVE('',#395,#395,#39,.T.);
#324=EDGE_CURVE('',#396,#396,#40,.T.);
#325=EDGE_CURVE('',#397,#397,#41,.T.);
#326=EDGE_CURVE('',#398,#398,#42,.T.);
#327=EDGE_CURVE('',#399,#399,#43,.T.);
#328=EDGE_CURVE('',#345,#358,#452,.T.);
#329=EDGE_CURVE('',#347,#359,#453,.T.);
#330=EDGE_CURVE('',#361,#374,#454,.T.);
#331=EDGE_CURVE('',#363,#375,#455,.T.);
#332=EDGE_CURVE('',#377,#390,#456,.T.);
#333=EDGE_CURVE('',#379,#391,#457,.T.);
#334=EDGE_CURVE('',#337,#342,#458,.T.);
#335=EDGE_CURVE('',#339,#343,#459,.T.);
#336=VERTEX_POINT('',#952);
#337=VERTEX_POINT('',#953);
#338=VERTEX_POINT('',#955);
#339=VERTEX_POINT('',#957);
#340=VERTEX_POINT('',#961);
#341=VERTEX_POINT('',#963);
#342=VERTEX_POINT('',#967);
#343=VERTEX_POINT('',#969);
#344=VERTEX_POINT('',#973);
#345=VERTEX_POINT('',#974);
#346=VERTEX_POINT('',#976);
#347=VERTEX_POINT('',#978);
#348=VERTEX_POINT('',#982);
#349=VERTEX_POINT('',#984);
#350=VERTEX_POINT('',#988);
#351=VERTEX_POINT('',#990);
#352=VERTEX_POINT('',#994);
#353=VERTEX_POINT('',#996);
#354=VERTEX_POINT('',#1000);
#355=VERTEX_POINT('',#1002);
#356=VERTEX_POINT('',#1006);
#357=VERTEX_POINT('',#1008);
#358=VERTEX_POINT('',#1012);
#359=VERTEX_POINT('',#1014);
#360=VERTEX_POINT('',#1018);
#361=VERTEX_POINT('',#1019);
#362=VERTEX_POINT('',#1021);
#363=VERTEX_POINT('',#1023);
#364=VERTEX_POINT('',#1027);
#365=VERTEX_POINT('',#1029);
#366=VERTEX_POINT('',#1033);
#367=VERTEX_POINT('',#1035);
#368=VERTEX_POINT('',#1039);
#369=VERTEX_POINT('',#1041);
#370=VERTEX_POINT('',#1045);
#371=VERTEX_POINT('',#1047);
#372=VERTEX_POINT('',#1051);
#373=VERTEX_POINT('',#1053);
#374=VERTEX_POINT('',#1057);
#375=VERTEX_POINT('',#1059);
#376=VERTEX_POINT('',#1063);
#377=VERTEX_POINT('',#1064);
#378=VERTEX_POINT('',#1066);
#379=VERTEX_POINT('',#1068);
#380=VERTEX_POINT('',#1072);
#381=VERTEX_POINT('',#1074);
#382=VERTEX_POINT('',#1078);
#383=VERTEX_POINT('',#1080);
#384=VERTEX_POINT('',#1084);
#385=VERTEX_POINT('',#1086);
#386=VERTEX_POINT('',#1090);
#387=VERTEX_POINT('',#1092);
#388=VERTEX_POINT('',#1096);
#389=VERTEX_POINT('',#1098);
#390=VERTEX_POINT('',#1102);
#391=VERTEX_POINT('',#1104);
#392=VERTEX_POINT('',#1108);
#393=VERTEX_POINT('',#1110);
#394=VERTEX_POINT('',#1113);
#395=VERTEX_POINT('',#1115);
#396=VERTEX_POINT('',#1118);
#397=VERTEX_POINT('',#1120);
#398=VERTEX_POINT('',#1123);
#399=VERTEX_POINT('',#1125);
#400=LINE('',#951,#460);
#401=LINE('',#954,#461);
#402=LINE('',#956,#462);
#403=LINE('',#958,#463);
#404=LINE('',#960,#464);
#405=LINE('',#962,#465);
#406=LINE('',#964,#466);
#407=LINE('',#966,#467);
#408=LINE('',#968,#468);
#409=LINE('',#970,#469);
#410=LINE('',#975,#470);
#411=LINE('',#979,#471);
#412=LINE('',#981,#472);
#413=LINE('',#983,#473);
#414=LINE('',#985,#474);
#415=LINE('',#989,#475);
#416=LINE('',#993,#476);
#417=LINE('',#995,#477);
#418=LINE('',#997,#478);
#419=LINE('',#1001,#479);
#420=LINE('',#1005,#480);
#421=LINE('',#1007,#481);
#422=LINE('',#1009,#482);
#423=LINE('',#1013,#483);
#424=LINE('',#1020,#484);
#425=LINE('',#1024,#485);
#426=LINE('',#1026,#486);
#427=LINE('',#1028,#487);
#428=LINE('',#1030,#488);
#429=LINE('',#1034,#489);
#430=LINE('',#1038,#490);
#431=LINE('',#1040,#491);
#432=LINE('',#1042,#492);
#433=LINE('',#1046,#493);
#434=LINE('',#1050,#494);
#435=LINE('',#1052,#495);
#436=LINE('',#1054,#496);
#437=LINE('',#1058,#497);
#438=LINE('',#1065,#498);
#439=LINE('',#1069,#499);
#440=LINE('',#1071,#500);
#441=LINE('',#1073,#501);
#442=LINE('',#1075,#502);
#443=LINE('',#1079,#503);
#444=LINE('',#1083,#504);
#445=LINE('',#1085,#505);
#446=LINE('',#1087,#506);
#447=LINE('',#1091,#507);
#448=LINE('',#1095,#508);
#449=LINE('',#1097,#509);
#450=LINE('',#1099,#510);
#451=LINE('',#1103,#511);
#452=LINE('',#1127,#512);
#453=LINE('',#1128,#513);
#454=LINE('',#1130,#514);
#455=LINE('',#1131,#515);
#456=LINE('',#1133,#516);
#457=LINE('',#1134,#517);
#458=LINE('',#1136,#518);
#459=LINE('',#1137,#519);
#460=VECTOR('',#759,1.);
#461=VECTOR('',#760,1.);
#462=VECTOR('',#761,1.);
#463=VECTOR('',#762,1.);
#464=VECTOR('',#765,1.);
#465=VECTOR('',#766,1.);
#466=VECTOR('',#767,1.);
#467=VECTOR('',#770,1.);
#468=VECTOR('',#771,1.);
#469=VECTOR('',#772,1.);
#470=VECTOR('',#777,1.);
#471=VECTOR('',#780,1.);
#472=VECTOR('',#783,1.);
#473=VECTOR('',#784,1.);
#474=VECTOR('',#785,1.);
#475=VECTOR('',#790,1.);
#476=VECTOR('',#795,1.);
#477=VECTOR('',#796,1.);
#478=VECTOR('',#797,1.);
#479=VECTOR('',#802,1.);
#480=VECTOR('',#807,1.);
#481=VECTOR('',#808,1.);
#482=VECTOR('',#809,1.);
#483=VECTOR('',#814,1.);
#484=VECTOR('',#821,1.);
#485=VECTOR('',#824,1.);
#486=VECTOR('',#827,1.);
#487=VECTOR('',#828,1.);
#488=VECTOR('',#829,1.);
#489=VECTOR('',#834,1.);
#490=VECTOR('',#839,1.);
#491=VECTOR('',#840,1.);
#492=VECTOR('',#841,1.);
#493=VECTOR('',#846,1.);
#494=VECTOR('',#851,1.);
#495=VECTOR('',#852,1.);
#496=VECTOR('',#853,1.);
#497=VECTOR('',#858,1.);
#498=VECTOR('',#865,1.);
#499=VECTOR('',#868,1.);
#500=VECTOR('',#871,1.);
#501=VECTOR('',#872,1.);
#502=VECTOR('',#873,1.);
#503=VECTOR('',#878,1.);
#504=VECTOR('',#883,1.);
#505=VECTOR('',#884,1.);
#506=VECTOR('',#885,1.);
#507=VECTOR('',#890,1.);
#508=VECTOR('',#895,1.);
#509=VECTOR('',#896,1.);
#510=VECTOR('',#897,1.);
#511=VECTOR('',#902,1.);
#512=VECTOR('',#931,1.);
#513=VECTOR('',#932,1.);
#514=VECTOR('',#935,1.);
#515=VECTOR('',#936,1.);
#516=VECTOR('',#939,1.);
#517=VECTOR('',#940,1.);
#518=VECTOR('',#943,1.);
#519=VECTOR('',#944,1.);
#520=EDGE_LOOP('',(#60,#61,#62,#63));
#521=EDGE_LOOP('',(#64,#65,#66,#67));
#522=EDGE_LOOP('',(#68,#69,#70,#71));
#523=EDGE_LOOP('',(#72,#73,#74,#75));
#524=EDGE_LOOP('',(#76,#77,#78,#79));
#525=EDGE_LOOP('',(#80,#81,#82,#83));
#526=EDGE_LOOP('',(#84,#85,#86,#87));
#527=EDGE_LOOP('',(#88,#89,#90,#91));
#528=EDGE_LOOP('',(#92,#93,#94,#95));
#529=EDGE_LOOP('',(#96,#97,#98,#99));
#530=EDGE_LOOP('',(#100,#101,#102,#103));
#531=EDGE_LOOP('',(#104,#105,#106,#107));
#532=EDGE_LOOP('',(#108,#109,#110,#111));
#533=EDGE_LOOP('',(#112,#113,#114,#115));
#534=EDGE_LOOP('',(#116,#117,#118,#119));
#535=EDGE_LOOP('',(#120,#121,#122,#123));
#536=EDGE_LOOP('',(#124,#125,#126,#127));
#537=EDGE_LOOP('',(#128,#129,#130,#131));
#538=EDGE_LOOP('',(#132,#133,#134,#135));
#539=EDGE_LOOP('',(#136,#137,#138,#139));
#540=EDGE_LOOP('',(#140,#141,#142,#143));
#541=EDGE_LOOP('',(#144,#145,#146,#147));
#542=EDGE_LOOP('',(#148,#149,#150,#151));
#543=EDGE_LOOP('',(#152,#153,#154,#155));
#544=EDGE_LOOP('',(#156));
#545=EDGE_LOOP('',(#157));
#546=EDGE_LOOP('',(#158));
#547=EDGE_LOOP('',(#159));
#548=EDGE_LOOP('',(#160));
#549=EDGE_LOOP('',(#161));
#550=EDGE_LOOP('',(#162));
#551=EDGE_LOOP('',(#163));
#552=EDGE_LOOP('',(#164,#165,#166,#167));
#553=EDGE_LOOP('',(#168,#169,#170,#171));
#554=EDGE_LOOP('',(#172,#173,#174,#175));
#555=EDGE_LOOP('',(#176,#177,#178,#179));
#556=EDGE_LOOP('',(#180,#181,#182,#183,#184,#185,#186,#187));
#557=EDGE_LOOP('',(#188,#189,#190,#191,#192,#193,#194,#195));
#558=EDGE_LOOP('',(#196,#197,#198,#199,#200,#201,#202,#203));
#559=EDGE_LOOP('',(#204));
#560=EDGE_LOOP('',(#205));
#561=EDGE_LOOP('',(#206));
#562=EDGE_LOOP('',(#207));
#563=EDGE_LOOP('',(#208,#209,#210,#211));
#564=EDGE_LOOP('',(#212,#213,#214,#215,#216,#217,#218,#219));
#565=EDGE_LOOP('',(#220,#221,#222,#223,#224,#225,#226,#227));
#566=EDGE_LOOP('',(#228,#229,#230,#231,#232,#233,#234,#235));
#567=EDGE_LOOP('',(#236));
#568=EDGE_LOOP('',(#237));
#569=EDGE_LOOP('',(#238));
#570=EDGE_LOOP('',(#239));
#571=EDGE_LOOP('',(#240,#241,#242,#243));
#572=FACE_BOUND('',#520,.T.);
#573=FACE_BOUND('',#521,.T.);
#574=FACE_BOUND('',#522,.T.);
#575=FACE_BOUND('',#523,.T.);
#576=FACE_BOUND('',#524,.T.);
#577=FACE_BOUND('',#525,.T.);
#578=FACE_BOUND('',#526,.T.);
#579=FACE_BOUND('',#527,.T.);
#580=FACE_BOUND('',#528,.T.);
#581=FACE_BOUND('',#529,.T.);
#582=FACE_BOUND('',#530,.T.);
#583=FACE_BOUND('',#531,.T.);
#584=FACE_BOUND('',#532,.T.);
#585=FACE_BOUND('',#533,.T.);
#586=FACE_BOUND('',#534,.T.);
#587=FACE_BOUND('',#535,.T.);
#588=FACE_BOUND('',#536,.T.);
#589=FACE_BOUND('',#537,.T.);
#590=FACE_BOUND('',#538,.T.);
#591=FACE_BOUND('',#539,.T.);
#592=FACE_BOUND('',#540,.T.);
#593=FACE_BOUND('',#541,.T.);
#594=FACE_BOUND('',#542,.T.);
#595=FACE_BOUND('',#543,.T.);
#596=FACE_BOUND('',#544,.T.);
#597=FACE_BOUND('',#545,.T.);
#598=FACE_BOUND('',#546,.T.);
#599=FACE_BOUND('',#547,.T.);
#600=FACE_BOUND('',#548,.T.);
#601=FACE_BOUND('',#549,.T.);
#602=FACE_BOUND('',#550,.T.);
#603=FACE_BOUND('',#551,.T.);
#604=FACE_BOUND('',#552,.T.);
#605=FACE_BOUND('',#553,.T.);
#606=FACE_BOUND('',#554,.T.);
#607=FACE_BOUND('',#555,.T.);
#608=FACE_BOUND('',#556,.T.);
#609=FACE_BOUND('',#557,.T.);
#610=FACE_BOUND('',#558,.T.);
#611=FACE_BOUND('',#559,.T.);
#612=FACE_BOUND('',#560,.T.);
#613=FACE_BOUND('',#561,.T.);
#614=FACE_BOUND('',#562,.T.);
#615=FACE_BOUND('',#563,.T.);
#616=FACE_BOUND('',#564,.T.);
#617=FACE_BOUND('',#565,.T.);
#618=FACE_BOUND('',#566,.T.);
#619=FACE_BOUND('',#567,.T.);
#620=FACE_BOUND('',#568,.T.);
#621=FACE_BOUND('',#569,.T.);
#622=FACE_BOUND('',#570,.T.);
#623=FACE_BOUND('',#571,.T.);
#624=PLANE('',#689);
#625=PLANE('',#690);
#626=PLANE('',#691);
#627=PLANE('',#695);
#628=PLANE('',#699);
#629=PLANE('',#703);
#630=PLANE('',#710);
#631=PLANE('',#714);
#632=PLANE('',#718);
#633=PLANE('',#725);
#634=PLANE('',#729);
#635=PLANE('',#733);
#636=PLANE('',#749);
#637=PLANE('',#750);
#638=PLANE('',#751);
#639=PLANE('',#752);
#640=PLANE('',#753);
#641=PLANE('',#754);
#642=ADVANCED_FACE('',(#572),#624,.T.);
#643=ADVANCED_FACE('',(#573),#625,.F.);
#644=ADVANCED_FACE('',(#574),#626,.F.);
#645=ADVANCED_FACE('',(#575),#44,.F.);
#646=ADVANCED_FACE('',(#576),#627,.F.);
#647=ADVANCED_FACE('',(#577),#45,.F.);
#648=ADVANCED_FACE('',(#578),#628,.F.);
#649=ADVANCED_FACE('',(#579),#46,.F.);
#650=ADVANCED_FACE('',(#580),#629,.T.);
#651=ADVANCED_FACE('',(#581),#47,.F.);
#652=ADVANCED_FACE('',(#582),#48,.F.);
#653=ADVANCED_FACE('',(#583),#630,.F.);
#654=ADVANCED_FACE('',(#584),#49,.F.);
#655=ADVANCED_FACE('',(#585),#631,.F.);
#656=ADVANCED_FACE('',(#586),#50,.F.);
#657=ADVANCED_FACE('',(#587),#632,.T.);
#658=ADVANCED_FACE('',(#588),#51,.F.);
#659=ADVANCED_FACE('',(#589),#52,.F.);
#660=ADVANCED_FACE('',(#590),#633,.F.);
#661=ADVANCED_FACE('',(#591),#53,.F.);
#662=ADVANCED_FACE('',(#592),#634,.F.);
#663=ADVANCED_FACE('',(#593),#54,.F.);
#664=ADVANCED_FACE('',(#594),#635,.T.);
#665=ADVANCED_FACE('',(#595),#55,.F.);
#666=ADVANCED_FACE('',(#596,#597),#56,.F.);
#667=ADVANCED_FACE('',(#598,#599),#57,.F.);
#668=ADVANCED_FACE('',(#600,#601),#58,.F.);
#669=ADVANCED_FACE('',(#602,#603),#59,.F.);
#670=ADVANCED_FACE('',(#604),#636,.T.);
#671=ADVANCED_FACE('',(#605),#637,.T.);
#672=ADVANCED_FACE('',(#606),#638,.T.);
#673=ADVANCED_FACE('',(#607),#639,.T.);
#674=ADVANCED_FACE('',(#608,#609,#610,#611,#612,#613,#614,#615),#640,.T.);
#675=ADVANCED_FACE('',(#616,#617,#618,#619,#620,#621,#622,#623),#641,.F.);
#676=CLOSED_SHELL('',(#642,#643,#644,#645,#646,#647,#648,#649,#650,#651,
#652,#653,#654,#655,#656,#657,#658,#659,#660,#661,#662,#663,#664,#665,#666,
#667,#668,#669,#670,#671,#672,#673,#674,#675));
#677=STYLED_ITEM('',(#678),#685);
#678=PRESENTATION_STYLE_ASSIGNMENT((#679));
#679=SURFACE_STYLE_USAGE(.BOTH.,#680);
#680=SURFACE_SIDE_STYLE('',(#681));
#681=SURFACE_STYLE_FILL_AREA(#682);
#682=FILL_AREA_STYLE('',(#683));
#683=FILL_AREA_STYLE_COLOUR('',#684);
#684=COLOUR_RGB('',0.615686274509804,0.811764705882353,0.929411764705882);
#685=MANIFOLD_SOLID_BREP('Part 1',#676);
#686=SHAPE_DEFINITION_REPRESENTATION(#1146,#687);
#687=SHAPE_REPRESENTATION('Part 1',(#688),#1141);
#688=AXIS2_PLACEMENT_3D('',#949,#755,#756);
#689=AXIS2_PLACEMENT_3D('',#950,#757,#758);
#690=AXIS2_PLACEMENT_3D('',#959,#763,#764);
#691=AXIS2_PLACEMENT_3D('',#965,#768,#769);
#692=AXIS2_PLACEMENT_3D('',#971,#773,#774);
#693=AXIS2_PLACEMENT_3D('',#972,#775,#776);
#694=AXIS2_PLACEMENT_3D('',#977,#778,#779);
#695=AXIS2_PLACEMENT_3D('',#980,#781,#782);
#696=AXIS2_PLACEMENT_3D('',#986,#786,#787);
#697=AXIS2_PLACEMENT_3D('',#987,#788,#789);
#698=AXIS2_PLACEMENT_3D('',#991,#791,#792);
#699=AXIS2_PLACEMENT_3D('',#992,#793,#794);
#700=AXIS2_PLACEMENT_3D('',#998,#798,#799);
#701=AXIS2_PLACEMENT_3D('',#999,#800,#801);
#702=AXIS2_PLACEMENT_3D('',#1003,#803,#804);
#703=AXIS2_PLACEMENT_3D('',#1004,#805,#806);
#704=AXIS2_PLACEMENT_3D('',#1010,#810,#811);
#705=AXIS2_PLACEMENT_3D('',#1011,#812,#813);
#706=AXIS2_PLACEMENT_3D('',#1015,#815,#816);
#707=AXIS2_PLACEMENT_3D('',#1016,#817,#818);
#708=AXIS2_PLACEMENT_3D('',#1017,#819,#820);
#709=AXIS2_PLACEMENT_3D('',#1022,#822,#823);
#710=AXIS2_PLACEMENT_3D('',#1025,#825,#826);
#711=AXIS2_PLACEMENT_3D('',#1031,#830,#831);
#712=AXIS2_PLACEMENT_3D('',#1032,#832,#833);
#713=AXIS2_PLACEMENT_3D('',#1036,#835,#836);
#714=AXIS2_PLACEMENT_3D('',#1037,#837,#838);
#715=AXIS2_PLACEMENT_3D('',#1043,#842,#843);
#716=AXIS2_PLACEMENT_3D('',#1044,#844,#845);
#717=AXIS2_PLACEMENT_3D('',#1048,#847,#848);
#718=AXIS2_PLACEMENT_3D('',#1049,#849,#850);
#719=AXIS2_PLACEMENT_3D('',#1055,#854,#855);
#720=AXIS2_PLACEMENT_3D('',#1056,#856,#857);
#721=AXIS2_PLACEMENT_3D('',#1060,#859,#860);
#722=AXIS2_PLACEMENT_3D('',#1061,#861,#862);
#723=AXIS2_PLACEMENT_3D('',#1062,#863,#864);
#724=AXIS2_PLACEMENT_3D('',#1067,#866,#867);
#725=AXIS2_PLACEMENT_3D('',#1070,#869,#870);
#726=AXIS2_PLACEMENT_3D('',#1076,#874,#875);
#727=AXIS2_PLACEMENT_3D('',#1077,#876,#877);
#728=AXIS2_PLACEMENT_3D('',#1081,#879,#880);
#729=AXIS2_PLACEMENT_3D('',#1082,#881,#882);
#730=AXIS2_PLACEMENT_3D('',#1088,#886,#887);
#731=AXIS2_PLACEMENT_3D('',#1089,#888,#889);
#732=AXIS2_PLACEMENT_3D('',#1093,#891,#892);
#733=AXIS2_PLACEMENT_3D('',#1094,#893,#894);
#734=AXIS2_PLACEMENT_3D('',#1100,#898,#899);
#735=AXIS2_PLACEMENT_3D('',#1101,#900,#901);
#736=AXIS2_PLACEMENT_3D('',#1105,#903,#904);
#737=AXIS2_PLACEMENT_3D('',#1106,#905,#906);
#738=AXIS2_PLACEMENT_3D('',#1107,#907,#908);
#739=AXIS2_PLACEMENT_3D('',#1109,#909,#910);
#740=AXIS2_PLACEMENT_3D('',#1111,#911,#912);
#741=AXIS2_PLACEMENT_3D('',#1112,#913,#914);
#742=AXIS2_PLACEMENT_3D('',#1114,#915,#916);
#743=AXIS2_PLACEMENT_3D('',#1116,#917,#918);
#744=AXIS2_PLACEMENT_3D('',#1117,#919,#920);
#745=AXIS2_PLACEMENT_3D('',#1119,#921,#922);
#746=AXIS2_PLACEMENT_3D('',#1121,#923,#924);
#747=AXIS2_PLACEMENT_3D('',#1122,#925,#926);
#748=AXIS2_PLACEMENT_3D('',#1124,#927,#928);
#749=AXIS2_PLACEMENT_3D('',#1126,#929,#930);
#750=AXIS2_PLACEMENT_3D('',#1129,#933,#934);
#751=AXIS2_PLACEMENT_3D('',#1132,#937,#938);
#752=AXIS2_PLACEMENT_3D('',#1135,#941,#942);
#753=AXIS2_PLACEMENT_3D('',#1138,#945,#946);
#754=AXIS2_PLACEMENT_3D('',#1139,#947,#948);
#755=DIRECTION('',(0.,0.,1.));
#756=DIRECTION('',(1.,0.,0.));
#757=DIRECTION('',(0.,1.,0.));
#758=DIRECTION('',(0.,0.,1.));
#759=DIRECTION('',(1.,0.,0.));
#760=DIRECTION('',(0.,0.,-1.));
#761=DIRECTION('',(1.,0.,0.));
#762=DIRECTION('',(0.,0.,-1.));
#763=DIRECTION('',(1.,0.,0.));
#764=DIRECTION('',(0.,0.,-1.));
#765=DIRECTION('',(0.,-1.,0.));
#766=DIRECTION('',(0.,0.,-1.));
#767=DIRECTION('',(0.,-1.,0.));
#768=DIRECTION('',(0.,1.,0.));
#769=DIRECTION('',(0.,0.,1.));
#770=DIRECTION('',(1.,0.,0.));
#771=DIRECTION('',(0.,0.,-1.));
#772=DIRECTION('',(1.,0.,0.));
#773=DIRECTION('',(0.,0.,-1.));
#774=DIRECTION('',(-1.,0.,0.));
#775=DIRECTION('',(0.,0.,1.));
#776=DIRECTION('',(1.,0.,0.));
#777=DIRECTION('',(0.,0.,-1.));
#778=DIRECTION('',(0.,0.,1.));
#779=DIRECTION('',(1.,0.,0.));
#780=DIRECTION('',(0.,0.,-1.));
#781=DIRECTION('',(0.,1.,0.));
#782=DIRECTION('',(0.,0.,1.));
#783=DIRECTION('',(1.,0.,0.));
#784=DIRECTION('',(0.,0.,-1.));
#785=DIRECTION('',(1.,0.,0.));
#786=DIRECTION('',(0.,0.,-1.));
#787=DIRECTION('',(-1.,0.,0.));
#788=DIRECTION('',(0.,0.,1.));
#789=DIRECTION('',(1.,0.,0.));
#790=DIRECTION('',(0.,0.,-1.));
#791=DIRECTION('',(0.,0.,1.));
#792=DIRECTION('',(1.,0.,0.));
#793=DIRECTION('',(1.,0.,0.));
#794=DIRECTION('',(0.,0.,-1.));
#795=DIRECTION('',(0.,-1.,0.));
#796=DIRECTION('',(0.,0.,-1.));
#797=DIRECTION('',(0.,-1.,0.));
#798=DIRECTION('',(0.,0.,-1.));
#799=DIRECTION('',(-1.,0.,0.));
#800=DIRECTION('',(0.,0.,1.));
#801=DIRECTION('',(1.,0.,0.));
#802=DIRECTION('',(0.,0.,-1.));
#803=DIRECTION('',(0.,0.,1.));
#804=DIRECTION('',(1.,0.,0.));
#805=DIRECTION('',(0.,1.,0.));
#806=DIRECTION('',(0.,0.,1.));
#807=DIRECTION('',(1.,0.,0.));
#808=DIRECTION('',(0.,0.,-1.));
#809=DIRECTION('',(1.,0.,0.));
#810=DIRECTION('',(0.,0.,-1.));
#811=DIRECTION('',(-1.,0.,0.));
#812=DIRECTION('',(0.,0.,1.));
#813=DIRECTION('',(1.,0.,0.));
#814=DIRECTION('',(0.,0.,-1.));
#815=DIRECTION('',(0.,0.,1.));
#816=DIRECTION('',(1.,0.,0.));
#817=DIRECTION('',(0.,0.,-1.));
#818=DIRECTION('',(-1.,0.,0.));
#819=DIRECTION('',(0.,0.,1.));
#820=DIRECTION('',(1.,0.,0.));
#821=DIRECTION('',(0.,0.,-1.));
#822=DIRECTION('',(0.,0.,1.));
#823=DIRECTION('',(1.,0.,0.));
#824=DIRECTION('',(0.,0.,-1.));
#825=DIRECTION('',(0.,1.,0.));
#826=DIRECTION('',(0.,0.,1.));
#827=DIRECTION('',(1.,0.,0.));
#828=DIRECTION('',(0.,0.,-1.));
#829=DIRECTION('',(1.,0.,0.));
#830=DIRECTION('',(0.,0.,-1.));
#831=DIRECTION('',(-1.,0.,0.));
#832=DIRECTION('',(0.,0.,1.));
#833=DIRECTION('',(1.,0.,0.));
#834=DIRECTION('',(0.,0.,-1.));
#835=DIRECTION('',(0.,0.,1.));
#836=DIRECTION('',(1.,0.,0.));
#837=DIRECTION('',(1.,0.,0.));
#838=DIRECTION('',(0.,0.,-1.));
#839=DIRECTION('',(0.,-1.,0.));
#840=DIRECTION('',(0.,0.,-1.));
#841=DIRECTION('',(0.,-1.,0.));
#842=DIRECTION('',(0.,0.,-1.));
#843=DIRECTION('',(-1.,0.,0.));
#844=DIRECTION('',(0.,0.,1.));
#845=DIRECTION('',(1.,0.,0.));
#846=DIRECTION('',(0.,0.,-1.));
#847=DIRECTION('',(0.,0.,1.));
#848=DIRECTION('',(1.,0.,0.));
#849=DIRECTION('',(0.,1.,0.));
#850=DIRECTION('',(0.,0.,1.));
#851=DIRECTION('',(1.,0.,0.));
#852=DIRECTION('',(0.,0.,-1.));
#853=DIRECTION('',(1.,0.,0.));
#854=DIRECTION('',(0.,0.,-1.));
#855=DIRECTION('',(-1.,0.,0.));
#856=DIRECTION('',(0.,0.,1.));
#857=DIRECTION('',(1.,0.,0.));
#858=DIRECTION('',(0.,0.,-1.));
#859=DIRECTION('',(0.,0.,1.));
#860=DIRECTION('',(1.,0.,0.));
#861=DIRECTION('',(0.,0.,-1.));
#862=DIRECTION('',(-1.,0.,0.));
#863=DIRECTION('',(0.,0.,1.));
#864=DIRECTION('',(1.,0.,0.));
#865=DIRECTION('',(0.,0.,-1.));
#866=DIRECTION('',(0.,0.,1.));
#867=DIRECTION('',(1.,0.,0.));
#868=DIRECTION('',(0.,0.,-1.));
#869=DIRECTION('',(0.,1.,0.));
#870=DIRECTION('',(0.,0.,1.));
#871=DIRECTION('',(1.,0.,0.));
#872=DIRECTION('',(0.,0.,-1.));
#873=DIRECTION('',(1.,0.,0.));
#874=DIRECTION('',(0.,0.,-1.));
#875=DIRECTION('',(-1.,0.,0.));
#876=DIRECTION('',(0.,0.,1.));
#877=DIRECTION('',(1.,0.,0.));
#878=DIRECTION('',(0.,0.,-1.));
#879=DIRECTION('',(0.,0.,1.));
#880=DIRECTION('',(1.,0.,0.));
#881=DIRECTION('',(1.,0.,0.));
#882=DIRECTION('',(0.,0.,-1.));
#883=DIRECTION('',(0.,-1.,0.));
#884=DIRECTION('',(0.,0.,-1.));
#885=DIRECTION('',(0.,-1.,0.));
#886=DIRECTION('',(0.,0.,-1.));
#887=DIRECTION('',(-1.,0.,0.));
#888=DIRECTION('',(0.,0.,1.));
#889=DIRECTION('',(1.,0.,0.));
#890=DIRECTION('',(0.,0.,-1.));
#891=DIRECTION('',(0.,0.,1.));
#892=DIRECTION('',(1.,0.,0.));
#893=DIRECTION('',(0.,1.,0.));
#894=DIRECTION('',(0.,0.,1.));
#895=DIRECTION('',(1.,0.,0.));
#896=DIRECTION('',(0.,0.,-1.));
#897=DIRECTION('',(1.,0.,0.));
#898=DIRECTION('',(0.,0.,-1.));
#899=DIRECTION('',(-1.,0.,0.));
#900=DIRECTION('',(0.,0.,1.));
#901=DIRECTION('',(1.,0.,0.));
#902=DIRECTION('',(0.,0.,-1.));
#903=DIRECTION('',(0.,0.,1.));
#904=DIRECTION('',(1.,0.,0.));
#905=DIRECTION('',(0.,0.,-1.));
#906=DIRECTION('',(-1.,0.,0.));
#907=DIRECTION('',(0.,0.,1.));
#908=DIRECTION('',(1.,0.,0.));
#909=DIRECTION('',(0.,0.,1.));
#910=DIRECTION('',(1.,0.,0.));
#911=DIRECTION('',(0.,0.,-1.));
#912=DIRECTION('',(-1.,0.,0.));
#913=DIRECTION('',(0.,0.,1.));
#914=DIRECTION('',(1.,0.,0.));
#915=DIRECTION('',(0.,0.,1.));
#916=DIRECTION('',(1.,0.,0.));
#917=DIRECTION('',(0.,0.,-1.));
#918=DIRECTION('',(-1.,0.,0.));
#919=DIRECTION('',(0.,0.,1.));
#920=DIRECTION('',(1.,0.,0.));
#921=DIRECTION('',(0.,0.,1.));
#922=DIRECTION('',(1.,0.,0.));
#923=DIRECTION('',(0.,0.,-1.));
#924=DIRECTION('',(-1.,0.,0.));
#925=DIRECTION('',(0.,0.,1.));
#926=DIRECTION('',(1.,0.,0.));
#927=DIRECTION('',(0.,0.,1.));
#928=DIRECTION('',(1.,0.,0.));
#929=DIRECTION('',(1.,0.,0.));
#930=DIRECTION('',(0.,0.,-1.));
#931=DIRECTION('',(0.,-1.,0.));
#932=DIRECTION('',(0.,-1.,0.));
#933=DIRECTION('',(1.,0.,0.));
#934=DIRECTION('',(0.,0.,-1.));
#935=DIRECTION('',(0.,-1.,0.));
#936=DIRECTION('',(0.,-1.,0.));
#937=DIRECTION('',(1.,0.,0.));
#938=DIRECTION('',(0.,0.,-1.));
#939=DIRECTION('',(0.,-1.,0.));
#940=DIRECTION('',(0.,-1.,0.));
#941=DIRECTION('',(1.,0.,0.));
#942=DIRECTION('',(0.,0.,-1.));
#943=DIRECTION('',(0.,-1.,0.));
#944=DIRECTION('',(0.,-1.,0.));
#945=DIRECTION('',(0.,0.,1.));
#946=DIRECTION('',(1.,0.,0.));
#947=DIRECTION('',(0.,0.,1.));
#948=DIRECTION('',(1.,0.,0.));
#949=CARTESIAN_POINT('',(0.,0.,0.));
#950=CARTESIAN_POINT('',(0.0397774106323719,0.0400911906823516,0.003));
#951=CARTESIAN_POINT('',(0.0397774106323719,0.0400911906823516,0.));
#952=CARTESIAN_POINT('',(0.000877410632371872,0.0400911906823516,0.));
#953=CARTESIAN_POINT('',(0.0786774106323719,0.0400911906823516,0.));
#954=CARTESIAN_POINT('',(0.000877410632371872,0.0400911906823516,0.003));
#955=CARTESIAN_POINT('',(0.000877410632371872,0.0400911906823516,0.003));
#956=CARTESIAN_POINT('',(0.0397774106323719,0.0400911906823516,0.003));
#957=CARTESIAN_POINT('',(0.0786774106323719,0.0400911906823516,0.003));
#958=CARTESIAN_POINT('',(0.0786774106323719,0.0400911906823516,0.003));
#959=CARTESIAN_POINT('',(0.000877410632371872,0.0203911906823516,0.003));
#960=CARTESIAN_POINT('',(0.000877410632371872,0.0203911906823516,0.));
#961=CARTESIAN_POINT('',(0.000877410632371872,0.000691190682351604,0.));
#962=CARTESIAN_POINT('',(0.000877410632371872,0.000691190682351604,0.003));
#963=CARTESIAN_POINT('',(0.000877410632371872,0.000691190682351604,0.003));
#964=CARTESIAN_POINT('',(0.000877410632371872,0.0203911906823516,0.003));
#965=CARTESIAN_POINT('',(0.0397774106323719,0.000691190682351604,0.003));
#966=CARTESIAN_POINT('',(0.0397774106323719,0.000691190682351604,0.));
#967=CARTESIAN_POINT('',(0.0786774106323719,0.0006911906823516,0.));
#968=CARTESIAN_POINT('',(0.0786774106323719,0.0006911906823516,0.003));
#969=CARTESIAN_POINT('',(0.0786774106323719,0.0006911906823516,0.003));
#970=CARTESIAN_POINT('',(0.0397774106323719,0.000691190682351604,0.003));
#971=CARTESIAN_POINT('',(0.0523024106323719,0.0268661906823516,0.003));
#972=CARTESIAN_POINT('',(0.0523024106323719,0.0268661906823516,0.));
#973=CARTESIAN_POINT('',(0.0523024106323719,0.0273661906823516,0.));
#974=CARTESIAN_POINT('',(0.0518024106323719,0.0268661906823516,0.));
#975=CARTESIAN_POINT('',(0.0523024106323719,0.0273661906823516,0.003));
#976=CARTESIAN_POINT('',(0.0523024106323719,0.0273661906823516,0.003));
#977=CARTESIAN_POINT('',(0.0523024106323719,0.0268661906823516,0.003));
#978=CARTESIAN_POINT('',(0.0518024106323719,0.0268661906823516,0.003));
#979=CARTESIAN_POINT('',(0.0518024106323719,0.0268661906823516,0.003));
#980=CARTESIAN_POINT('',(0.0588024106323719,0.0273661906823516,0.003));
#981=CARTESIAN_POINT('',(0.0588024106323719,0.0273661906823516,0.));
#982=CARTESIAN_POINT('',(0.0653024106323719,0.0273661906823516,0.));
#983=CARTESIAN_POINT('',(0.0653024106323719,0.0273661906823516,0.003));
#984=CARTESIAN_POINT('',(0.0653024106323719,0.0273661906823516,0.003));
#985=CARTESIAN_POINT('',(0.0588024106323719,0.0273661906823516,0.003));
#986=CARTESIAN_POINT('',(0.0653024106323719,0.0268661906823516,0.003));
#987=CARTESIAN_POINT('',(0.0653024106323719,0.0268661906823516,0.));
#988=CARTESIAN_POINT('',(0.0658024106323719,0.0268661906823516,0.));
#989=CARTESIAN_POINT('',(0.0658024106323719,0.0268661906823516,0.003));
#990=CARTESIAN_POINT('',(0.0658024106323719,0.0268661906823516,0.003));
#991=CARTESIAN_POINT('',(0.0653024106323719,0.0268661906823516,0.003));
#992=CARTESIAN_POINT('',(0.0658024106323719,0.0203661906823516,0.003));
#993=CARTESIAN_POINT('',(0.0658024106323719,0.0203661906823516,0.));
#994=CARTESIAN_POINT('',(0.0658024106323719,0.0138661906823516,0.));
#995=CARTESIAN_POINT('',(0.0658024106323719,0.0138661906823516,0.003));
#996=CARTESIAN_POINT('',(0.0658024106323719,0.0138661906823516,0.003));
#997=CARTESIAN_POINT('',(0.0658024106323719,0.0203661906823516,0.003));
#998=CARTESIAN_POINT('',(0.0653024106323719,0.0138661906823516,0.003));
#999=CARTESIAN_POINT('',(0.0653024106323719,0.0138661906823516,0.));
#1000=CARTESIAN_POINT('',(0.0653024106323719,0.0133661906823516,0.));
#1001=CARTESIAN_POINT('',(0.0653024106323719,0.0133661906823516,0.003));
#1002=CARTESIAN_POINT('',(0.0653024106323719,0.0133661906823516,0.003));
#1003=CARTESIAN_POINT('',(0.0653024106323719,0.0138661906823516,0.003));
#1004=CARTESIAN_POINT('',(0.0588024106323719,0.0133661906823516,0.003));
#1005=CARTESIAN_POINT('',(0.0588024106323719,0.0133661906823516,0.));
#1006=CARTESIAN_POINT('',(0.0523024106323719,0.0133661906823516,0.));
#1007=CARTESIAN_POINT('',(0.0523024106323719,0.0133661906823516,0.003));
#1008=CARTESIAN_POINT('',(0.0523024106323719,0.0133661906823516,0.003));
#1009=CARTESIAN_POINT('',(0.0588024106323719,0.0133661906823516,0.003));
#1010=CARTESIAN_POINT('',(0.0523024106323719,0.0138661906823516,0.003));
#1011=CARTESIAN_POINT('',(0.0523024106323719,0.0138661906823516,0.));
#1012=CARTESIAN_POINT('',(0.0518024106323719,0.0138661906823516,0.));
#1013=CARTESIAN_POINT('',(0.0518024106323719,0.0138661906823516,0.003));
#1014=CARTESIAN_POINT('',(0.0518024106323719,0.0138661906823516,0.003));
#1015=CARTESIAN_POINT('',(0.0523024106323719,0.0138661906823516,0.003));
#1016=CARTESIAN_POINT('',(0.0332524106323719,0.0268661906823516,0.003));
#1017=CARTESIAN_POINT('',(0.0332524106323719,0.0268661906823516,0.));
#1018=CARTESIAN_POINT('',(0.0332524106323719,0.0273661906823516,0.));
#1019=CARTESIAN_POINT('',(0.0327524106323719,0.0268661906823516,0.));
#1020=CARTESIAN_POINT('',(0.0332524106323719,0.0273661906823516,0.003));
#1021=CARTESIAN_POINT('',(0.0332524106323719,0.0273661906823516,0.003));
#1022=CARTESIAN_POINT('',(0.0332524106323719,0.0268661906823516,0.003));
#1023=CARTESIAN_POINT('',(0.0327524106323719,0.0268661906823516,0.003));
#1024=CARTESIAN_POINT('',(0.0327524106323719,0.0268661906823516,0.003));
#1025=CARTESIAN_POINT('',(0.0397524106323719,0.0273661906823516,0.003));
#1026=CARTESIAN_POINT('',(0.0397524106323719,0.0273661906823516,0.));
#1027=CARTESIAN_POINT('',(0.0462524106323719,0.0273661906823516,0.));
#1028=CARTESIAN_POINT('',(0.0462524106323719,0.0273661906823516,0.003));
#1029=CARTESIAN_POINT('',(0.0462524106323719,0.0273661906823516,0.003));
#1030=CARTESIAN_POINT('',(0.0397524106323719,0.0273661906823516,0.003));
#1031=CARTESIAN_POINT('',(0.0462524106323719,0.0268661906823516,0.003));
#1032=CARTESIAN_POINT('',(0.0462524106323719,0.0268661906823516,0.));
#1033=CARTESIAN_POINT('',(0.0467524106323719,0.0268661906823516,0.));
#1034=CARTESIAN_POINT('',(0.0467524106323719,0.0268661906823516,0.003));
#1035=CARTESIAN_POINT('',(0.0467524106323719,0.0268661906823516,0.003));
#1036=CARTESIAN_POINT('',(0.0462524106323719,0.0268661906823516,0.003));
#1037=CARTESIAN_POINT('',(0.0467524106323719,0.0203661906823516,0.003));
#1038=CARTESIAN_POINT('',(0.0467524106323719,0.0203661906823516,0.));
#1039=CARTESIAN_POINT('',(0.0467524106323719,0.0138661906823516,0.));
#1040=CARTESIAN_POINT('',(0.0467524106323719,0.0138661906823516,0.003));
#1041=CARTESIAN_POINT('',(0.0467524106323719,0.0138661906823516,0.003));
#1042=CARTESIAN_POINT('',(0.0467524106323719,0.0203661906823516,0.003));
#1043=CARTESIAN_POINT('',(0.0462524106323719,0.0138661906823516,0.003));
#1044=CARTESIAN_POINT('',(0.0462524106323719,0.0138661906823516,0.));
#1045=CARTESIAN_POINT('',(0.0462524106323719,0.0133661906823516,0.));
#1046=CARTESIAN_POINT('',(0.0462524106323719,0.0133661906823516,0.003));
#1047=CARTESIAN_POINT('',(0.0462524106323719,0.0133661906823516,0.003));
#1048=CARTESIAN_POINT('',(0.0462524106323719,0.0138661906823516,0.003));
#1049=CARTESIAN_POINT('',(0.0397524106323719,0.0133661906823516,0.003));
#1050=CARTESIAN_POINT('',(0.0397524106323719,0.0133661906823516,0.));
#1051=CARTESIAN_POINT('',(0.0332524106323719,0.0133661906823516,0.));
#1052=CARTESIAN_POINT('',(0.0332524106323719,0.0133661906823516,0.003));
#1053=CARTESIAN_POINT('',(0.0332524106323719,0.0133661906823516,0.003));
#1054=CARTESIAN_POINT('',(0.0397524106323719,0.0133661906823516,0.003));
#1055=CARTESIAN_POINT('',(0.0332524106323719,0.0138661906823516,0.003));
#1056=CARTESIAN_POINT('',(0.0332524106323719,0.0138661906823516,0.));
#1057=CARTESIAN_POINT('',(0.0327524106323719,0.0138661906823516,0.));
#1058=CARTESIAN_POINT('',(0.0327524106323719,0.0138661906823516,0.003));
#1059=CARTESIAN_POINT('',(0.0327524106323719,0.0138661906823516,0.003));
#1060=CARTESIAN_POINT('',(0.0332524106323719,0.0138661906823516,0.003));
#1061=CARTESIAN_POINT('',(0.0142024106323719,0.0268661906823516,0.003));
#1062=CARTESIAN_POINT('',(0.0142024106323719,0.0268661906823516,0.));
#1063=CARTESIAN_POINT('',(0.0142024106323719,0.0273661906823516,0.));
#1064=CARTESIAN_POINT('',(0.0137024106323719,0.0268661906823516,0.));
#1065=CARTESIAN_POINT('',(0.0142024106323719,0.0273661906823516,0.003));
#1066=CARTESIAN_POINT('',(0.0142024106323719,0.0273661906823516,0.003));
#1067=CARTESIAN_POINT('',(0.0142024106323719,0.0268661906823516,0.003));
#1068=CARTESIAN_POINT('',(0.0137024106323719,0.0268661906823516,0.003));
#1069=CARTESIAN_POINT('',(0.0137024106323719,0.0268661906823516,0.003));
#1070=CARTESIAN_POINT('',(0.0207024106323719,0.0273661906823516,0.003));
#1071=CARTESIAN_POINT('',(0.0207024106323719,0.0273661906823516,0.));
#1072=CARTESIAN_POINT('',(0.0272024106323719,0.0273661906823516,0.));
#1073=CARTESIAN_POINT('',(0.0272024106323719,0.0273661906823516,0.003));
#1074=CARTESIAN_POINT('',(0.0272024106323719,0.0273661906823516,0.003));
#1075=CARTESIAN_POINT('',(0.0207024106323719,0.0273661906823516,0.003));
#1076=CARTESIAN_POINT('',(0.0272024106323719,0.0268661906823516,0.003));
#1077=CARTESIAN_POINT('',(0.0272024106323719,0.0268661906823516,0.));
#1078=CARTESIAN_POINT('',(0.0277024106323719,0.0268661906823516,0.));
#1079=CARTESIAN_POINT('',(0.0277024106323719,0.0268661906823516,0.003));
#1080=CARTESIAN_POINT('',(0.0277024106323719,0.0268661906823516,0.003));
#1081=CARTESIAN_POINT('',(0.0272024106323719,0.0268661906823516,0.003));
#1082=CARTESIAN_POINT('',(0.0277024106323719,0.0203661906823516,0.003));
#1083=CARTESIAN_POINT('',(0.0277024106323719,0.0203661906823516,0.));
#1084=CARTESIAN_POINT('',(0.0277024106323719,0.0138661906823516,0.));
#1085=CARTESIAN_POINT('',(0.0277024106323719,0.0138661906823516,0.003));
#1086=CARTESIAN_POINT('',(0.0277024106323719,0.0138661906823516,0.003));
#1087=CARTESIAN_POINT('',(0.0277024106323719,0.0203661906823516,0.003));
#1088=CARTESIAN_POINT('',(0.0272024106323719,0.0138661906823516,0.003));
#1089=CARTESIAN_POINT('',(0.0272024106323719,0.0138661906823516,0.));
#1090=CARTESIAN_POINT('',(0.0272024106323719,0.0133661906823516,0.));
#1091=CARTESIAN_POINT('',(0.0272024106323719,0.0133661906823516,0.003));
#1092=CARTESIAN_POINT('',(0.0272024106323719,0.0133661906823516,0.003));
#1093=CARTESIAN_POINT('',(0.0272024106323719,0.0138661906823516,0.003));
#1094=CARTESIAN_POINT('',(0.0207024106323719,0.0133661906823516,0.003));
#1095=CARTESIAN_POINT('',(0.0207024106323719,0.0133661906823516,0.));
#1096=CARTESIAN_POINT('',(0.0142024106323719,0.0133661906823516,0.));
#1097=CARTESIAN_POINT('',(0.0142024106323719,0.0133661906823516,0.003));
#1098=CARTESIAN_POINT('',(0.0142024106323719,0.0133661906823516,0.003));
#1099=CARTESIAN_POINT('',(0.0207024106323719,0.0133661906823516,0.003));
#1100=CARTESIAN_POINT('',(0.0142024106323719,0.0138661906823516,0.003));
#1101=CARTESIAN_POINT('',(0.0142024106323719,0.0138661906823516,0.));
#1102=CARTESIAN_POINT('',(0.0137024106323719,0.0138661906823516,0.));
#1103=CARTESIAN_POINT('',(0.0137024106323719,0.0138661906823516,0.003));
#1104=CARTESIAN_POINT('',(0.0137024106323719,0.0138661906823516,0.003));
#1105=CARTESIAN_POINT('',(0.0142024106323719,0.0138661906823516,0.003));
#1106=CARTESIAN_POINT('',(0.00587741063237189,0.0350911906823516,0.003));
#1107=CARTESIAN_POINT('',(0.00587741063237189,0.0350911906823516,0.003));
#1108=CARTESIAN_POINT('',(0.00732741063237189,0.0350911906823516,0.003));
#1109=CARTESIAN_POINT('',(0.00587741063237189,0.0350911906823516,0.));
#1110=CARTESIAN_POINT('',(0.00732741063237189,0.0350911906823516,0.));
#1111=CARTESIAN_POINT('',(0.0736774106323719,0.0350911906823516,0.003));
#1112=CARTESIAN_POINT('',(0.0736774106323719,0.0350911906823516,0.003));
#1113=CARTESIAN_POINT('',(0.0751274106323719,0.0350911906823516,0.003));
#1114=CARTESIAN_POINT('',(0.0736774106323719,0.0350911906823516,0.));
#1115=CARTESIAN_POINT('',(0.0751274106323719,0.0350911906823516,0.));
#1116=CARTESIAN_POINT('',(0.0736774106323719,0.0056911906823516,0.003));
#1117=CARTESIAN_POINT('',(0.0736774106323719,0.0056911906823516,0.003));
#1118=CARTESIAN_POINT('',(0.0751274106323719,0.0056911906823516,0.003));
#1119=CARTESIAN_POINT('',(0.0736774106323719,0.0056911906823516,0.));
#1120=CARTESIAN_POINT('',(0.0751274106323719,0.0056911906823516,0.));
#1121=CARTESIAN_POINT('',(0.0058774106323719,0.00569119068235158,0.003));
#1122=CARTESIAN_POINT('',(0.0058774106323719,0.00569119068235158,0.003));
#1123=CARTESIAN_POINT('',(0.0073274106323719,0.00569119068235158,0.003));
#1124=CARTESIAN_POINT('',(0.0058774106323719,0.00569119068235158,0.));
#1125=CARTESIAN_POINT('',(0.0073274106323719,0.00569119068235158,0.));
#1126=CARTESIAN_POINT('',(0.0518024106323719,0.0203661906823516,0.003));
#1127=CARTESIAN_POINT('',(0.0518024106323719,0.0203661906823516,0.));
#1128=CARTESIAN_POINT('',(0.0518024106323719,0.0203661906823516,0.003));
#1129=CARTESIAN_POINT('',(0.0327524106323719,0.0203661906823516,0.003));
#1130=CARTESIAN_POINT('',(0.0327524106323719,0.0203661906823516,0.));
#1131=CARTESIAN_POINT('',(0.0327524106323719,0.0203661906823516,0.003));
#1132=CARTESIAN_POINT('',(0.0137024106323719,0.0203661906823516,0.003));
#1133=CARTESIAN_POINT('',(0.0137024106323719,0.0203661906823516,0.));
#1134=CARTESIAN_POINT('',(0.0137024106323719,0.0203661906823516,0.003));
#1135=CARTESIAN_POINT('',(0.0786774106323719,0.0203911906823516,0.003));
#1136=CARTESIAN_POINT('',(0.0786774106323719,0.0203911906823516,0.));
#1137=CARTESIAN_POINT('',(0.0786774106323719,0.0203911906823516,0.003));
#1138=CARTESIAN_POINT('',(0.0397774106323719,0.0203911906823516,0.003));
#1139=CARTESIAN_POINT('',(0.0397774106323719,0.0203911906823516,0.));
#1140=MECHANICAL_DESIGN_GEOMETRIC_PRESENTATION_REPRESENTATION('',(#677),
#1141);
#1141=(
GEOMETRIC_REPRESENTATION_CONTEXT(3)
GLOBAL_UNCERTAINTY_ASSIGNED_CONTEXT((#1142))
GLOBAL_UNIT_ASSIGNED_CONTEXT((#1145,#1144,#1143))
REPRESENTATION_CONTEXT('Part 1','TOP_LEVEL_ASSEMBLY_PART')
);
#1142=UNCERTAINTY_MEASURE_WITH_UNIT(LENGTH_MEASURE(1.E-8),#1145,
'DISTANCE_ACCURACY_VALUE','Maximum Tolerance applied to model');
#1143=(
NAMED_UNIT(*)
SI_UNIT($,.STERADIAN.)
SOLID_ANGLE_UNIT()
);
#1144=(
NAMED_UNIT(*)
PLANE_ANGLE_UNIT()
SI_UNIT($,.RADIAN.)
);
#1145=(
LENGTH_UNIT()
NAMED_UNIT(*)
SI_UNIT($,.METRE.)
);
#1146=PRODUCT_DEFINITION_SHAPE('','',#1147);
#1147=PRODUCT_DEFINITION('','',#1149,#1148);
#1148=PRODUCT_DEFINITION_CONTEXT('',#1155,'design');
#1149=PRODUCT_DEFINITION_FORMATION_WITH_SPECIFIED_SOURCE('','',#1151,
 .NOT_KNOWN.);
#1150=PRODUCT_RELATED_PRODUCT_CATEGORY('','',(#1151));
#1151=PRODUCT('Part 1','Part 1','Part 1',(#1153));
#1152=PRODUCT_CATEGORY('','');
#1153=PRODUCT_CONTEXT('',#1155,'mechanical');
#1154=APPLICATION_PROTOCOL_DEFINITION('international standard',
'ap242_managed_model_based_3d_engineering',2020,#1155);
#1155=APPLICATION_CONTEXT('managed model based 3d engineering');
ENDSEC;
END-ISO-10303-21;
